<svg width="20" height="20" viewBox="0 0 20 20" fill="none" xmlns="http://www.w3.org/2000/svg">
<path d="M7 14C6.52083 14 6.05208 13.9062 5.59375 13.7188C5.15625 13.5312 4.76042 13.2708 4.40625 12.9375C4.07292 12.5833 3.8125 12.1875 3.625 11.75C3.4375 11.2917 3.34375 10.8229 3.34375 10.3438C3.34375 9.67708 3.5 9.0625 3.8125 8.5C4.14583 7.9375 4.59375 7.48958 5.15625 7.15625C5.71875 6.82292 6.33333 6.65625 7 6.65625H14C14.7292 6.65625 15.3542 6.91667 15.875 7.4375C16.3958 7.95833 16.6562 8.59375 16.6562 9.34375C16.6562 10.0729 16.3958 10.6979 15.875 11.2188C15.3542 11.7396 14.7292 12 14 12H8.34375C7.88542 12 7.48958 11.8438 7.15625 11.5312C6.82292 11.1979 6.65625 10.8021 6.65625 10.3438C6.65625 9.88542 6.82292 9.48958 7.15625 9.15625C7.48958 8.82292 7.88542 8.65625 8.34375 8.65625H13.3438V9.65625H8.34375C8.15625 9.65625 7.98958 9.72917 7.84375 9.875C7.71875 10 7.65625 10.1562 7.65625 10.3438C7.65625 10.5312 7.71875 10.6875 7.84375 10.8125C7.98958 10.9375 8.15625 11 8.34375 11H14C14.4583 11 14.8438 10.8438 15.1562 10.5312C15.4896 10.1979 15.6562 9.80208 15.6562 9.34375C15.6562 8.88542 15.4896 8.48958 15.1562 8.15625C14.8438 7.82292 14.4583 7.65625 14 7.65625H7C6.27083 7.65625 5.64583 7.91667 5.125 8.4375C4.60417 8.95833 4.34375 9.59375 4.34375 10.3438C4.34375 11.0729 4.60417 11.6979 5.125 12.2188C5.64583 12.7396 6.27083 13 7 13H13.3438V14H7Z" fill="black" fill-opacity="0.6"/>
</svg>
