<svg width="14" height="15" viewBox="0 0 14 15" fill="none" xmlns="http://www.w3.org/2000/svg">
<path d="M7.34375 0.34375L11.3438 4.34375V6.34375C10.9479 6.07292 10.5 5.88542 10 5.78125V5H6.65625V1.65625H2V12.3438H5.34375C5.51042 12.6146 5.69792 12.8542 5.90625 13.0625C6.13542 13.2917 6.38542 13.4896 6.65625 13.6562H2C1.625 13.6562 1.30208 13.5208 1.03125 13.25C0.78125 13 0.65625 12.6979 0.65625 12.3438V1.65625C0.65625 1.30208 0.78125 1 1.03125 0.75C1.30208 0.479167 1.625 0.34375 2 0.34375H7.34375ZM11.5312 11.5938L13.5938 13.6562L12.6562 14.5938L10.5938 12.5312C10.0938 12.8438 9.55208 13 8.96875 13C8.40625 13 7.88542 12.8438 7.40625 12.5312C6.69792 12.0938 6.25 11.4688 6.0625 10.6562C5.875 9.84375 6 9.09375 6.4375 8.40625C6.89583 7.69792 7.53125 7.25 8.34375 7.0625C9.15625 6.875 9.90625 7.01042 10.5938 7.46875C11.3021 7.90625 11.75 8.53125 11.9375 9.34375C12.125 10.1354 11.9896 10.8854 11.5312 11.5938ZM9 11.6562C9.45833 11.6562 9.84375 11.5 10.1562 11.1875C10.4896 10.8542 10.6562 10.4583 10.6562 10C10.6562 9.54167 10.4896 9.15625 10.1562 8.84375C9.84375 8.51042 9.45833 8.34375 9 8.34375C8.54167 8.34375 8.14583 8.51042 7.8125 8.84375C7.5 9.15625 7.34375 9.54167 7.34375 10C7.34375 10.4583 7.5 10.8542 7.8125 11.1875C8.14583 11.5 8.54167 11.6562 9 11.6562Z" fill="black" fill-opacity="0.2"/>
</svg>
