<svg width="100" height="60" viewBox="0 0 100 60" fill="none" xmlns="http://www.w3.org/2000/svg">
<g clip-path="url(#clip0_7608_32442)">
<g filter="url(#filter0_d_7608_32442)">
<path d="M42.2578 3V9.64852H58.5053V3L50.3816 3.08911L42.2578 3Z" fill="white" stroke="#4B45E7"/>
<path d="M50.3809 0V3.30198" stroke="#4B45E7"/>
<path fill-rule="evenodd" clip-rule="evenodd" d="M37.5 23.0002C38.5868 23.0002 39.5579 22.5049 40.1999 21.7276H59.8003C60.4423 22.5047 61.4133 23 62.5 23C63.5867 23 64.5577 22.5047 65.1997 21.7276H65.6336V21.0607C65.8681 20.5908 66 20.0608 66 19.5V16.5C66 14.567 64.433 13 62.5 13C62.1543 13 61.8204 13.0501 61.505 13.1435V7.82227L50.3812 7.91137L38.2574 7.82227V13.0824C38.0135 13.0286 37.7601 13.0002 37.5 13.0002C35.567 13.0002 34 14.5672 34 16.5002V19.5002C34 21.4332 35.567 23.0002 37.5 23.0002Z" fill="white"/>
<path d="M40.1999 21.7276V21.2276H39.9644L39.8144 21.4092L40.1999 21.7276ZM59.8003 21.7276L60.1858 21.4092L60.0358 21.2276H59.8003V21.7276ZM65.1997 21.7276V21.2276H64.9642L64.8142 21.4092L65.1997 21.7276ZM65.6336 21.7276V22.2276H66.1336V21.7276H65.6336ZM65.6336 21.0607L65.1862 20.8375L65.1336 20.9429V21.0607H65.6336ZM61.505 13.1435H61.005V13.8129L61.6469 13.6229L61.505 13.1435ZM61.505 7.82227H62.005V7.31824L61.501 7.32228L61.505 7.82227ZM50.3812 7.91137L50.3775 8.41142L50.3852 8.41136L50.3812 7.91137ZM38.2574 7.82227L38.2611 7.32228L37.7574 7.31858V7.82227H38.2574ZM38.2574 13.0824L38.1497 13.5707L38.7574 13.7048V13.0824H38.2574ZM39.8144 21.4092C39.2633 22.0764 38.4314 22.5002 37.5 22.5002V23.5002C38.7423 23.5002 39.8525 22.9334 40.5854 22.046L39.8144 21.4092ZM59.8003 21.2276H40.1999V22.2276H59.8003V21.2276ZM62.5 22.5C61.5687 22.5 60.7368 22.0762 60.1858 21.4092L59.4148 22.0461C60.1477 22.9332 61.2579 23.5 62.5 23.5V22.5ZM64.8142 21.4092C64.2632 22.0762 63.4313 22.5 62.5 22.5V23.5C63.7421 23.5 64.8523 22.9332 65.5852 22.0461L64.8142 21.4092ZM65.6336 21.2276H65.1997V22.2276H65.6336V21.2276ZM65.1336 21.0607V21.7276H66.1336V21.0607H65.1336ZM65.5 19.5C65.5 19.9816 65.3869 20.4354 65.1862 20.8375L66.081 21.284C66.3493 20.7463 66.5 20.14 66.5 19.5H65.5ZM65.5 16.5V19.5H66.5V16.5H65.5ZM62.5 13.5C64.1569 13.5 65.5 14.8431 65.5 16.5H66.5C66.5 14.2909 64.7091 12.5 62.5 12.5V13.5ZM61.6469 13.6229C61.9167 13.543 62.2029 13.5 62.5 13.5V12.5C62.1058 12.5 61.724 12.5572 61.3631 12.664L61.6469 13.6229ZM61.005 7.82227V13.1435H62.005V7.82227H61.005ZM50.3852 8.41136L61.509 8.32225L61.501 7.32228L50.3772 7.41139L50.3852 8.41136ZM38.2538 8.32225L50.3775 8.41136L50.3849 7.41139L38.2611 7.32228L38.2538 8.32225ZM38.7574 13.0824V7.82227H37.7574V13.0824H38.7574ZM37.5 13.5002C37.7236 13.5002 37.941 13.5246 38.1497 13.5707L38.3652 12.5942C38.0861 12.5326 37.7965 12.5002 37.5 12.5002V13.5002ZM34.5 16.5002C34.5 14.8434 35.8431 13.5002 37.5 13.5002V12.5002C35.2909 12.5002 33.5 14.2911 33.5 16.5002H34.5ZM34.5 19.5002V16.5002H33.5V19.5002H34.5ZM37.5 22.5002C35.8431 22.5002 34.5 21.1571 34.5 19.5002H33.5C33.5 21.7094 35.2909 23.5002 37.5 23.5002V22.5002Z" fill="#4B45E7"/>
<path d="M32 20.7272C34.3465 23.856 39.4307 29.9906 40.995 37.4995H59.7673C61.3317 29.9906 66.4158 23.856 68.7624 20.7272L50.3812 16.0342L32 20.7272Z" fill="white" stroke="#4B45E7"/>
<path d="M50.3809 20.7275V37.1087" stroke="#4B45E7"/>
<path d="M38.2578 19.4708V12.8223M61.5053 12.8223V18.4708" stroke="#4B45E7"/>
<rect x="42" y="11" width="7" height="2" fill="#46C6FF"/>
<rect x="52" y="11" width="7" height="2" fill="#46C6FF"/>
</g>
</g>
<defs>
<filter id="filter0_d_7608_32442" x="19.1504" y="-8" width="62.4609" height="61.9995" filterUnits="userSpaceOnUse" color-interpolation-filters="sRGB">
<feFlood flood-opacity="0" result="BackgroundImageFix"/>
<feColorMatrix in="SourceAlpha" type="matrix" values="0 0 0 0 0 0 0 0 0 0 0 0 0 0 0 0 0 0 127 0" result="hardAlpha"/>
<feOffset dy="4"/>
<feGaussianBlur stdDeviation="6"/>
<feComposite in2="hardAlpha" operator="out"/>
<feColorMatrix type="matrix" values="0 0 0 0 0 0 0 0 0 0.58 0 0 0 0 1 0 0 0 0.6 0"/>
<feBlend mode="normal" in2="BackgroundImageFix" result="effect1_dropShadow_7608_32442"/>
<feBlend mode="normal" in="SourceGraphic" in2="effect1_dropShadow_7608_32442" result="shape"/>
</filter>
<clipPath id="clip0_7608_32442">
<rect width="100" height="60" fill="white"/>
</clipPath>
</defs>
</svg>
