<svg width="24" height="24" viewBox="0 0 24 24" fill="none" xmlns="http://www.w3.org/2000/svg">
<path d="M12.5 4.5V2.25" stroke="black" stroke-linecap="round" stroke-linejoin="round"/>
<path d="M12.5755 21.4921L12.5752 21.4921C12.5259 21.5026 12.4741 21.5026 12.4248 21.4921L12.4245 21.4921C11.851 21.3701 9.92902 20.914 7.98254 19.9285C6.04373 18.9469 4.17984 17.4907 3.5 15.4112V12.3851C3.5 12.3488 3.51218 12.3085 3.54242 12.2701C3.57326 12.2309 3.62232 12.195 3.68737 12.1751L3.54132 11.6969L3.68737 12.1751L12.3957 9.51542C12.463 9.49486 12.537 9.49486 12.6043 9.51542L21.3126 12.1751C21.3777 12.195 21.4267 12.2309 21.4576 12.2701C21.4878 12.3085 21.5 12.3488 21.5 12.3851V15.4112C20.8202 17.4907 18.9563 18.9469 17.0175 19.9285C15.071 20.914 13.149 21.3701 12.5755 21.4921Z" stroke="black" stroke-linecap="round" stroke-linejoin="round"/>
<path d="M12.5 15.7503V10" stroke="black" stroke-linecap="round" stroke-linejoin="round"/>
<path d="M6.50011 11V5.25C6.50011 5.05109 6.57913 4.86032 6.71978 4.71967C6.86043 4.57902 7.0512 4.5 7.25011 4.5H17.75C17.9489 4.5 18.1397 4.57902 18.2803 4.71967C18.421 4.86032 18.5 5.05109 18.5 5.25V11" stroke="black" stroke-linecap="round" stroke-linejoin="round"/>
</svg>
