<svg width="18" height="18" viewBox="0 0 18 18" fill="none" xmlns="http://www.w3.org/2000/svg">
<path d="M5.3992 5.18724V7.68936L9.00001 6.46809L12.6008 7.68936V5.18724H5.3992ZM4.16142 13.4383L3.03617 9.20852C2.97991 9.04965 2.98928 8.89078 3.0643 8.73192C3.13932 8.5532 3.26122 8.44398 3.43001 8.40427L4.18955 8.13618V5.18724C4.18955 4.82979 4.30208 4.53192 4.52713 4.29362C4.77093 4.03546 5.06162 3.90638 5.3992 3.90638H7.1996V2H10.8004V3.90638H12.6008C12.9384 3.90638 13.2197 4.03546 13.4448 4.29362C13.6886 4.53192 13.8105 4.82979 13.8105 5.18724V8.13618L14.57 8.40427C14.7388 8.44398 14.8607 8.5532 14.9357 8.73192C15.0107 8.89078 15.0201 9.04965 14.9638 9.20852L13.8386 13.4383H13.8105C13.3416 13.4383 12.8915 13.3192 12.4601 13.0809C12.0851 12.8624 11.7288 12.5645 11.3912 12.1872C11.0723 12.5645 10.716 12.8624 10.3222 13.0809C9.89083 13.3192 9.45011 13.4383 9.00001 13.4383C8.54991 13.4383 8.10919 13.3192 7.67784 13.0809C7.284 12.8624 6.92767 12.5645 6.60885 12.1872C6.27127 12.5645 5.91494 12.8624 5.53986 13.0809C5.10851 13.3192 4.65841 13.4383 4.18955 13.4383H4.16142ZM13.8105 14.7192H14.992V16H13.8105C12.9853 16 12.1789 15.7816 11.3912 15.3447C10.641 15.7617 9.84395 15.9703 9.00001 15.9703C8.15607 15.9703 7.35902 15.7617 6.60885 15.3447C5.82117 15.7816 5.01474 16 4.18955 16H3.00804V14.7192H4.18955C5.03349 14.7192 5.83992 14.4412 6.60885 13.8851C7.34026 14.4213 8.13732 14.6893 9.00001 14.6893C9.8627 14.6893 10.6597 14.4213 11.3912 13.8851C12.1601 14.4412 12.9665 14.7192 13.8105 14.7192Z" fill="white" fill-opacity="0.6"/>
</svg>
