<svg width="14" height="14" viewBox="0 0 14 14" fill="none" xmlns="http://www.w3.org/2000/svg">
<path d="M5 6.34375H11V7.65625H5V6.34375ZM11 3.65625H3V5H11V3.65625ZM13.6562 1.65625V13.6562L11 11H1.65625C1.30208 11 0.989583 10.875 0.71875 10.625C0.46875 10.3542 0.34375 10.0312 0.34375 9.65625V1.65625C0.34375 1.30208 0.46875 1 0.71875 0.75C0.989583 0.479167 1.30208 0.34375 1.65625 0.34375H12.3438C12.6979 0.34375 13 0.479167 13.25 0.75C13.5208 1 13.6562 1.30208 13.6562 1.65625ZM12.3438 1.65625H1.65625V9.65625H11.5625L12.3438 10.4375V1.65625Z" fill="black" fill-opacity="0.2"/>
</svg>
