<svg width="177" height="156" viewBox="0 0 177 156" fill="none" xmlns="http://www.w3.org/2000/svg">
<path d="M89.0171 18V138.034M149.034 78.0171H29" stroke="white"/>
<path d="M139.418 46.42C156.859 74.2653 148.425 110.977 120.58 128.418C92.7347 145.859 56.0228 137.425 38.5817 109.58C21.1405 81.7347 29.5748 45.0228 57.42 27.5817C85.2653 10.1405 121.977 18.5748 139.418 46.42Z" stroke="white"/>
<path d="M126.708 54.3814C139.752 75.2068 133.444 102.664 112.619 115.708C91.7932 128.752 64.3364 122.444 51.2922 101.619C38.248 80.7932 44.5559 53.3364 65.3814 40.2922C86.2068 27.248 113.664 33.5559 126.708 54.3814Z" stroke="white"/>
<path d="M113.997 62.3427C122.645 76.1483 118.463 94.35 104.657 102.997C90.8517 111.645 72.65 107.463 64.0027 93.6573C55.3554 79.8517 59.5371 61.65 73.3427 53.0027C87.1483 44.3554 105.35 48.5371 113.997 62.3427Z" stroke="white"/>
<g filter="url(#filter0_d_72_30935)">
<path d="M76 63.8906C76 51.3407 85.6732 39 89.5 39C93.3268 39 103 50.9224 103 63.8906V116.625C103 118.489 101.489 120 99.625 120H79.375C77.511 120 76 118.489 76 116.625V63.8906Z" fill="white"/>
<path d="M76.5 63.8906C76.5 57.7355 78.876 51.6039 81.7395 47.0033C83.1698 44.7052 84.7111 42.8066 86.118 41.4893C86.8217 40.8304 87.4825 40.3257 88.0701 39.9884C88.6654 39.6468 89.146 39.5 89.5 39.5C89.8581 39.5 90.3408 39.6432 90.9355 39.9744C91.523 40.3017 92.1834 40.7922 92.8865 41.4346C94.2922 42.719 95.8325 44.5778 97.2619 46.8486C100.123 51.3933 102.5 57.5246 102.5 63.8906V116.625C102.5 118.213 101.213 119.5 99.625 119.5H79.375C77.7872 119.5 76.5 118.213 76.5 116.625V63.8906Z" stroke="#4B45E7"/>
</g>
<path d="M89.5 39L89.5 77.6" stroke="#4B45E7"/>
<path d="M102.5 77.5L76.5 77.5" stroke="#4B45E7"/>
<path d="M89.9102 11.1172C87.9414 11.1172 86.793 9.53516 86.793 6.75781C86.793 4.00391 87.9648 2.39844 89.9102 2.39844C91.8555 2.39844 93.0273 4.00391 93.0273 6.75781C93.0273 9.53516 91.8672 11.1172 89.9102 11.1172ZM89.9102 10.0039C91.0586 10.0039 91.7383 8.87891 91.7383 6.75781C91.7383 4.64844 91.0469 3.48828 89.9102 3.48828C88.7734 3.48828 88.082 4.64844 88.082 6.75781C88.082 8.87891 88.7617 10.0039 89.9102 10.0039ZM96.2031 6.34766C95.125 6.34766 94.2578 5.48047 94.2578 4.40234C94.2578 3.32422 95.125 2.44531 96.2031 2.44531C97.2812 2.44531 98.1484 3.32422 98.1484 4.40234C98.1484 5.48047 97.2812 6.34766 96.2031 6.34766ZM96.2031 5.41016C96.7539 5.41016 97.1992 4.95312 97.1992 4.40234C97.1992 3.85156 96.7539 3.40625 96.2031 3.40625C95.6523 3.40625 95.1953 3.85156 95.1953 4.40234C95.1953 4.95312 95.6523 5.41016 96.2031 5.41016Z" fill="white"/>
<path d="M80.2812 144.516V153H78.9805V145.805H78.9336L76.9062 147.129V145.898L79.0156 144.516H80.2812ZM85.4023 153.117C83.5625 153.117 82.2734 152.121 82.2852 150.738C82.2734 149.648 83.0586 148.758 84.0547 148.605V148.559C83.1875 148.359 82.6016 147.586 82.6016 146.66C82.6016 145.359 83.7852 144.398 85.4023 144.398C87.0078 144.398 88.1797 145.359 88.1914 146.66C88.1797 147.586 87.5938 148.359 86.7383 148.559V148.605C87.7227 148.758 88.5078 149.648 88.5195 150.738C88.5078 152.121 87.2188 153.117 85.4023 153.117ZM85.4023 152.051C86.5039 152.051 87.207 151.477 87.207 150.645C87.207 149.766 86.4453 149.133 85.4023 149.133C84.3477 149.133 83.5742 149.766 83.5977 150.645C83.5742 151.477 84.2773 152.051 85.4023 152.051ZM85.4023 148.113C86.293 148.113 86.9258 147.574 86.9258 146.777C86.9258 145.992 86.3047 145.453 85.4023 145.453C84.4648 145.453 83.8555 145.98 83.8555 146.777C83.8555 147.574 84.5 148.113 85.4023 148.113ZM92.8086 153.117C90.8398 153.117 89.6914 151.535 89.6914 148.758C89.6914 146.004 90.8633 144.398 92.8086 144.398C94.7539 144.398 95.9258 146.004 95.9258 148.758C95.9258 151.535 94.7656 153.117 92.8086 153.117ZM92.8086 152.004C93.957 152.004 94.6367 150.879 94.6367 148.758C94.6367 146.648 93.9453 145.488 92.8086 145.488C91.6719 145.488 90.9805 146.648 90.9805 148.758C90.9805 150.879 91.6602 152.004 92.8086 152.004ZM99.1016 148.348C98.0234 148.348 97.1562 147.48 97.1562 146.402C97.1562 145.324 98.0234 144.445 99.1016 144.445C100.18 144.445 101.047 145.324 101.047 146.402C101.047 147.48 100.18 148.348 99.1016 148.348ZM99.1016 147.41C99.6523 147.41 100.098 146.953 100.098 146.402C100.098 145.852 99.6523 145.406 99.1016 145.406C98.5508 145.406 98.0938 145.852 98.0938 146.402C98.0938 146.953 98.5508 147.41 99.1016 147.41Z" fill="white"/>
<path d="M157.137 73.3984C158.695 73.4102 160.336 74.3477 160.336 77.4531C160.336 80.4297 159.059 82.1172 157.02 82.1172C155.461 82.1172 154.359 81.1562 154.16 79.7734H155.438C155.613 80.4883 156.164 80.9922 157.02 80.9922C158.332 80.9922 159.094 79.8438 159.105 77.9102H159C158.543 78.625 157.746 79.0586 156.832 79.0586C155.309 79.0586 154.09 77.8984 154.09 76.2695C154.09 74.6523 155.297 73.3867 157.137 73.3984ZM157.137 74.4766C156.105 74.4766 155.344 75.2734 155.344 76.2461C155.344 77.2305 156.082 78.0039 157.113 78.0039C158.133 78.0039 158.93 77.1719 158.93 76.2344C158.93 75.3203 158.18 74.4766 157.137 74.4766ZM164.648 82.1172C162.68 82.1172 161.531 80.5352 161.531 77.7578C161.531 75.0039 162.703 73.3984 164.648 73.3984C166.594 73.3984 167.766 75.0039 167.766 77.7578C167.766 80.5352 166.605 82.1172 164.648 82.1172ZM164.648 81.0039C165.797 81.0039 166.477 79.8789 166.477 77.7578C166.477 75.6484 165.785 74.4883 164.648 74.4883C163.512 74.4883 162.82 75.6484 162.82 77.7578C162.82 79.8789 163.5 81.0039 164.648 81.0039ZM170.941 77.3477C169.863 77.3477 168.996 76.4805 168.996 75.4023C168.996 74.3242 169.863 73.4453 170.941 73.4453C172.02 73.4453 172.887 74.3242 172.887 75.4023C172.887 76.4805 172.02 77.3477 170.941 77.3477ZM170.941 76.4102C171.492 76.4102 171.938 75.9531 171.938 75.4023C171.938 74.8516 171.492 74.4062 170.941 74.4062C170.391 74.4062 169.934 74.8516 169.934 75.4023C169.934 75.9531 170.391 76.4102 170.941 76.4102Z" fill="white"/>
<path d="M0.125 82V81.0625L3.06641 78.0977C3.99219 77.125 4.46094 76.5859 4.46094 75.8477C4.46094 75.0156 3.78125 74.4766 2.89062 74.4766C1.95312 74.4766 1.34375 75.0742 1.34375 75.9766H0.125C0.113281 74.4297 1.29688 73.3984 2.91406 73.3984C4.55469 73.3984 5.67969 74.4297 5.69141 75.8125C5.67969 76.7617 5.23438 77.5117 3.64062 79.082L1.91797 80.8281V80.8984H5.83203V82H0.125ZM7.55469 82L11.3398 74.6875V74.6172H6.96875V73.5156H12.6758V74.6641L8.90234 82H7.55469ZM16.7422 82.1172C14.7734 82.1172 13.625 80.5352 13.625 77.7578C13.625 75.0039 14.7969 73.3984 16.7422 73.3984C18.6875 73.3984 19.8594 75.0039 19.8594 77.7578C19.8594 80.5352 18.6992 82.1172 16.7422 82.1172ZM16.7422 81.0039C17.8906 81.0039 18.5703 79.8789 18.5703 77.7578C18.5703 75.6484 17.8789 74.4883 16.7422 74.4883C15.6055 74.4883 14.9141 75.6484 14.9141 77.7578C14.9141 79.8789 15.5938 81.0039 16.7422 81.0039ZM23.0352 77.3477C21.957 77.3477 21.0898 76.4805 21.0898 75.4023C21.0898 74.3242 21.957 73.4453 23.0352 73.4453C24.1133 73.4453 24.9805 74.3242 24.9805 75.4023C24.9805 76.4805 24.1133 77.3477 23.0352 77.3477ZM23.0352 76.4102C23.5859 76.4102 24.0312 75.9531 24.0312 75.4023C24.0312 74.8516 23.5859 74.4062 23.0352 74.4062C22.4844 74.4062 22.0273 74.8516 22.0273 75.4023C22.0273 75.9531 22.4844 76.4102 23.0352 76.4102Z" fill="white"/>
<defs>
<filter id="filter0_d_72_30935" x="64" y="31" width="51" height="105" filterUnits="userSpaceOnUse" color-interpolation-filters="sRGB">
<feFlood flood-opacity="0" result="BackgroundImageFix"/>
<feColorMatrix in="SourceAlpha" type="matrix" values="0 0 0 0 0 0 0 0 0 0 0 0 0 0 0 0 0 0 127 0" result="hardAlpha"/>
<feOffset dy="4"/>
<feGaussianBlur stdDeviation="6"/>
<feComposite in2="hardAlpha" operator="out"/>
<feColorMatrix type="matrix" values="0 0 0 0 0 0 0 0 0 0.58 0 0 0 0 1 0 0 0 0.6 0"/>
<feBlend mode="normal" in2="BackgroundImageFix" result="effect1_dropShadow_72_30935"/>
<feBlend mode="normal" in="SourceGraphic" in2="effect1_dropShadow_72_30935" result="shape"/>
</filter>
</defs>
</svg>
