<svg width="13" height="15" viewBox="0 0 13 15" fill="none" xmlns="http://www.w3.org/2000/svg">
<path d="M4.65625 12.3438V13.6562H2C1.625 13.6562 1.30208 13.5208 1.03125 13.25C0.78125 13 0.65625 12.6979 0.65625 12.3438V1.65625C0.65625 1.30208 0.78125 1 1.03125 0.75C1.30208 0.479167 1.625 0.34375 2 0.34375H7.34375L11.3438 4.34375V5.71875L10 7.0625V5H6.65625V1.65625H2V12.3438H4.65625ZM11.4688 7.65625C11.3854 7.65625 11.2917 7.70833 11.1875 7.8125L10.5312 8.46875L11.9375 9.875L12.5938 9.1875C12.6562 9.125 12.6875 9.04167 12.6875 8.9375C12.6875 8.83333 12.6562 8.73958 12.5938 8.65625L11.7188 7.8125C11.6354 7.70833 11.5521 7.65625 11.4688 7.65625ZM11.4688 10.2812L10.0625 8.875L6 12.9375V14.3438H7.40625L11.4688 10.2812Z" fill="#00B368"/>
</svg>
