<svg width="18" height="18" viewBox="0 0 18 18" fill="none" xmlns="http://www.w3.org/2000/svg">
<path d="M3.75 3.75V7.5H7.5" stroke="currentColor" stroke-width="1.5" stroke-linecap="round" stroke-linejoin="round"/>
<path d="M14.25 14.25V10.5H10.5" stroke="currentColor" stroke-width="1.5" stroke-linecap="round" stroke-linejoin="round"/>
<path d="M12.7575 6.75C12.4301 5.87099 11.856 5.10247 11.1018 4.53471C10.3477 3.96695 9.44512 3.62382 8.50156 3.54465C7.55799 3.46547 6.61136 3.65341 5.77565 4.08609C4.93993 4.51877 4.25029 5.17853 3.78 5.9925L3.75 7.5" stroke="currentColor" stroke-width="1.5" stroke-linecap="round" stroke-linejoin="round"/>
<path d="M5.2425 11.25C5.56989 12.129 6.14396 12.8975 6.89815 13.4653C7.65233 14.0331 8.55488 14.3762 9.49844 14.4553C10.442 14.5345 11.3886 14.3466 12.2244 13.9139C13.0601 13.4812 13.7497 12.8215 14.22 12.0075L14.25 10.5" stroke="currentColor" stroke-width="1.5" stroke-linecap="round" stroke-linejoin="round"/>
</svg>
