<svg width="840" height="418" viewBox="0 0 840 418" fill="none" xmlns="http://www.w3.org/2000/svg">
<path d="M75 380.5V345H598V387.5L422.5 413.5H260L75 380.5Z" fill="#A8A2BF" stroke="black" stroke-width="0.6"/>
<path d="M235.5 354.5H123.5L90.5 231.5L87.5 107.5L97 60L169 61.5L179 67V78.5H336.5L448 85L539.5 53.5L532 143.5L517.5 147.5C517.5 155.9 511.833 162.667 509 165L486.5 212L494.5 298.5L432 354.5H235.5Z" fill="url(#paint0_linear_372_10724)" stroke="black" stroke-width="0.6" stroke-linecap="round" stroke-linejoin="round"/>
<path d="M509 165L486.5 212L448 85L539.5 53.5L532 143.5L517.5 147.5C517.5 155.9 511.833 162.667 509 165Z" fill="#7A768B" stroke="black" stroke-width="0.6" stroke-linecap="round" stroke-linejoin="round"/>
<path d="M548.5 44.5L568 76L527.5 84.5L518.5 101V123.5H511V146.5L506 154V164H520.5V180.5H435.5V164H452V154C452 150 449.333 147.333 448 146.5L418.5 130.5L417 123.5L405.5 88.5V62H421V36L524 34.5C540.4 34.5 547.167 41.1667 548.5 44.5Z" fill="#AFABC4" stroke="black" stroke-width="0.6" stroke-linecap="round" stroke-linejoin="round"/>
<path d="M53.5 83.5H65L72 92L69.5 123L59 122.5H53.5C49.9 121.7 49 118.5 49 117H39V111.5C42.2 109.1 41 106.833 40 106V97.5C42.4 94.3 40.3333 92.5 39 92V87.5H49C49 85.1 52 83.8333 53.5 83.5Z" fill="#CFCCE0" stroke="black" stroke-width="0.6" stroke-linecap="round" stroke-linejoin="round"/>
<path d="M60.5 164.5V134.5L93 115L90.5 175L70 203.5L41 180.5C57.5 175 60.5 172 60.5 164.5Z" fill="#A39FB9" stroke="black" stroke-width="0.6" stroke-linecap="round" stroke-linejoin="round"/>
<rect x="75" y="65" width="33" height="94" fill="#87829A" stroke="black" stroke-width="0.6" stroke-linejoin="round"/>
<rect x="65" y="80" width="10" height="81" fill="#A39FB9" stroke="black" stroke-width="0.6" stroke-linejoin="round"/>
<path d="M65.0002 95.5C60.6669 105.167 54.6002 128.8 65.0002 146V95.5Z" fill="#A39FB9" stroke="black" stroke-width="0.6" stroke-linecap="round" stroke-linejoin="round"/>
<path d="M142 260L110 294L46.5 292L57 194C65 194.4 79.5 183 79.5 167V153H104L134.5 178.5L142 218.5V260Z" fill="#C3C1D6" stroke="black" stroke-width="0.6" stroke-linecap="round" stroke-linejoin="round"/>
<path d="M4.00032 337.5L16.5003 316L48 280.5V351.5C48 354.3 45.3333 355 44 355H8.00032C4.40032 355 3.83365 351.667 4.00032 350V337.5Z" fill="#C3C1D6" stroke="black" stroke-width="0.6" stroke-linecap="round" stroke-linejoin="round"/>
<path d="M1 316H41V240.5H1V316Z" fill="#C3C1D6" stroke="black" stroke-width="0.6" stroke-linecap="round" stroke-linejoin="round"/>
<path d="M7.5 240.5V316" stroke="black" stroke-width="0.6" stroke-linecap="round" stroke-linejoin="round"/>
<path d="M32.5 227V223.5H42.5H46H57V227C57 228.167 57.5 230.5 59 232C60.7678 233.768 63 236.5 63 239.5C63 242.5 61 245.5 59 247.5C57.5858 248.914 57 251.333 57 252.5V256H47.5H46H32.5V252.5C32.5 251.333 31.9142 248.914 30.5 247.5C28.5 245.5 26.5 242.5 26.5 239.5C26.5 236.5 29 234 30.5 232C32 230 32.5 228.167 32.5 227Z" fill="#C3C1D6" stroke="black" stroke-width="0.6" stroke-linecap="round" stroke-linejoin="round"/>
<path d="M32.5 263.5V260H42.5H46H57V263.5C57 264.667 57.5 267 59 268.5C60.7678 270.268 63 273 63 276C63 279 61 282 59 284C57.5858 285.414 57 287.833 57 289V292.5H47.5H46H32.5V289C32.5 287.833 31.9142 285.414 30.5 284C28.5 282 26.5 279 26.5 276C26.5 273 29 270.5 30.5 268.5C32 266.5 32.5 264.667 32.5 263.5Z" fill="#C3C1D6" stroke="black" stroke-width="0.6" stroke-linecap="round" stroke-linejoin="round"/>
<path d="M44.5 179C35.3873 179 28 186.387 28 195.5V207C28 212.185 26.0533 216.449 21 216.951V217H69C63.4771 217 61 212.523 61 207V195.5C61 186.387 53.6127 179 44.5 179Z" fill="#E3E1F1" stroke="black" stroke-width="0.6"/>
<path d="M14 221V217H74V221H14Z" fill="#E3E1F1" stroke="black" stroke-width="0.6" stroke-linecap="round" stroke-linejoin="round"/>
<path d="M16 225V221H72V225H16Z" fill="#C3C1D6" stroke="black" stroke-width="0.6" stroke-linecap="round" stroke-linejoin="round"/>
<path d="M16 262V253H73V262H16Z" fill="#C3C1D6" stroke="black" stroke-width="0.6" stroke-linecap="round" stroke-linejoin="round"/>
<path d="M16 294V290H75V294H16Z" fill="#C3C1D6" stroke="black" stroke-width="0.6" stroke-linecap="round" stroke-linejoin="round"/>
<path d="M124 355H75V290H124V355Z" fill="#C3C1D6" stroke="black" stroke-width="0.6" stroke-linecap="round" stroke-linejoin="round"/>
<circle cx="98.5" cy="301.5" r="17.5" fill="#D4D2E4" stroke="black" stroke-width="0.6"/>
<rect x="75" y="82" width="5" height="71" stroke="black" stroke-width="0.6" stroke-linejoin="round"/>
<rect x="80" y="82" width="4" height="71" stroke="black" stroke-width="0.6" stroke-linejoin="round"/>
<rect x="84" y="82" width="5" height="71" stroke="black" stroke-width="0.6" stroke-linejoin="round"/>
<rect x="89" y="82" width="5" height="71" stroke="black" stroke-width="0.6" stroke-linejoin="round"/>
<rect x="94" y="82" width="5" height="71" stroke="black" stroke-width="0.6" stroke-linejoin="round"/>
<rect x="99" y="82" width="4" height="71" stroke="black" stroke-width="0.6" stroke-linejoin="round"/>
<rect x="103" y="82" width="5" height="71" stroke="black" stroke-width="0.6" stroke-linejoin="round"/>
<path d="M397.019 261H364.519H282.519V369.5H403.019V266.5L397.019 261Z" fill="#A8A2BF" stroke="black" stroke-width="0.6" stroke-linecap="round" stroke-linejoin="round"/>
<path d="M286.519 313.5V259H364.519V313.5H286.519Z" fill="#A8A2BF" stroke="black" stroke-width="0.6" stroke-linecap="round" stroke-linejoin="round"/>
<path d="M282.519 324H403.019" stroke="black" stroke-width="0.6" stroke-linecap="round" stroke-linejoin="round"/>
<path d="M258.019 265H282.519V372.5H223.519V354.5H181.519V338H177.519C172.719 338 171.852 334.333 172.019 332.5V309L186.519 281.5H201.019V286.5H210.019V281.5H229.519V287H259.019V281.5H247.019V270.5H256.019L258.019 265Z" fill="#A8A2BF" stroke="black" stroke-width="0.6" stroke-linecap="round" stroke-linejoin="round"/>
<path d="M184.5 67H179V30.5H184.5V36H187V61H184.5V67Z" fill="#CFCCE0" stroke="black" stroke-width="0.6" stroke-linecap="round" stroke-linejoin="round"/>
<path d="M187 61V36H199V61H187Z" fill="#CFCCE0" stroke="black" stroke-width="0.6" stroke-linecap="round" stroke-linejoin="round"/>
<path d="M175.5 28.5C175.5 30.9 177.833 30.8333 179 30.5V67.0002H79C68.0001 67.0002 63.9999 57 64 51.0002V21.0002C64 9.40016 71.5001 2 84.0001 2H153.5C160.3 2 162.333 6.16667 162.5 8H172C175.5 8 175.5 11 175.5 12.5V28.5Z" fill="#CFCCE0" stroke="black" stroke-width="0.6" stroke-linecap="round" stroke-linejoin="round"/>
<circle cx="95" cy="50" r="7" fill="#A39FB9" stroke="black" stroke-width="0.6"/>
<path d="M411.5 107H180.5L169 97L182 80.5H405.5V88L411.5 107Z" stroke="black" stroke-width="0.6" stroke-linecap="round" stroke-linejoin="round"/>
<path d="M242 44H335V72H242V44Z" fill="#CFCCE0" stroke="black" stroke-width="0.6"/>
<path d="M405.5 72H179C177 72 173.5 75 173.5 80C173.5 86.4 177.5 88 179 88H405.5V72Z" fill="#C2BFD8" stroke="black" stroke-width="0.6"/>
<path d="M262 72H269V107H262V72Z" fill="#C2BFD8" stroke="black" stroke-width="0.6"/>
<path d="M322 72H329V107H322V72Z" fill="#C2BFD8" stroke="black" stroke-width="0.6"/>
<path d="M365 72H372V107H365V72Z" fill="#C2BFD8" stroke="black" stroke-width="0.6"/>
<circle cx="258.5" cy="57.5" r="3.5" fill="#A39FB9" stroke="black" stroke-width="0.6"/>
<circle cx="318.5" cy="57.5" r="3.5" fill="#A39FB9" stroke="black" stroke-width="0.6"/>
<circle cx="304.5" cy="57.5" r="5.5" fill="#A39FB9" stroke="black" stroke-width="0.6"/>
<circle cx="272.5" cy="57.5" r="5.5" fill="#A39FB9" stroke="black" stroke-width="0.6"/>
<circle cx="288.5" cy="57.5" r="5.5" fill="#A39FB9" stroke="black" stroke-width="0.6"/>
<rect x="95" y="182" width="21" height="7" rx="3.5" fill="#87829A" stroke="black" stroke-width="0.6" stroke-linejoin="round"/>
<path d="M97 115H177V212H158V219H130.5V212H97L113.5 187L97 158.5V115Z" fill="#87829A" stroke="black" stroke-width="0.6" stroke-linejoin="round"/>
<path d="M94 102C94 97.5817 97.5817 94 102 94H172C176.418 94 180 97.5817 180 102V120.318C180 123.721 177.848 126.751 174.635 127.872L139.635 140.081C137.929 140.676 136.071 140.676 134.365 140.081L99.365 127.872C96.1523 126.751 94 123.721 94 120.318V102Z" fill="#A39FB9" stroke="black" stroke-width="0.6"/>
<circle cx="149" cy="155" r="3" stroke="black" stroke-width="0.6" stroke-linejoin="round"/>
<rect x="128" y="174" width="18" height="12" fill="#87829A" stroke="black" stroke-width="0.6" stroke-linejoin="round"/>
<rect x="120" y="186" width="8" height="10" stroke="black" stroke-width="0.6" stroke-linejoin="round"/>
<rect x="118" y="196" width="13" height="5" stroke="black" stroke-width="0.6" stroke-linejoin="round"/>
<rect x="109" y="201" width="22" height="6" stroke="black" stroke-width="0.6" stroke-linejoin="round"/>
<path fill-rule="evenodd" clip-rule="evenodd" d="M149.995 185.637C150.472 185.358 151.084 185.518 151.363 185.995L163.363 206.495C163.642 206.972 163.482 207.584 163.005 207.863C162.529 208.142 161.916 207.982 161.637 207.505L149.637 187.005C149.358 186.529 149.518 185.916 149.995 185.637Z" fill="#87829A" stroke="black" stroke-width="0.6" stroke-linecap="round" stroke-linejoin="round"/>
<path fill-rule="evenodd" clip-rule="evenodd" d="M160.176 181.247C160.869 180.792 161.799 180.984 162.254 181.676L173.754 199.176C174.209 199.869 174.016 200.799 173.324 201.254C172.632 201.709 171.702 201.516 171.247 200.824L159.747 183.324C159.292 182.632 159.484 181.702 160.176 181.247Z" fill="#87829A" stroke="black" stroke-width="0.6" stroke-linecap="round" stroke-linejoin="round"/>
<path fill-rule="evenodd" clip-rule="evenodd" d="M157.5 184C153.082 184 149.5 187.582 149.5 192V219H141.5V192C141.5 183.163 148.663 176 157.5 176H177V184H157.5Z" fill="#8E8AA1" stroke="black" stroke-width="0.6" stroke-linecap="square" stroke-linejoin="round"/>
<path fill-rule="evenodd" clip-rule="evenodd" d="M138 186V201.5C138 204.261 140.239 206.5 143 206.5H163C163.552 206.5 164 206.948 164 207.5C164 208.052 163.552 208.5 163 208.5H143C139.134 208.5 136 205.366 136 201.5V186H138Z" fill="#8E8AA1" stroke="black" stroke-width="0.6" stroke-linecap="round" stroke-linejoin="round"/>
<circle cx="128" cy="207" r="5" fill="#87829A" stroke="black" stroke-width="0.6" stroke-linejoin="round"/>
<rect x="97" y="198" width="4" height="14" fill="#87829A" stroke="black" stroke-width="0.6" stroke-linejoin="round"/>
<rect x="101" y="200" width="8" height="9" fill="#87829A" stroke="black" stroke-width="0.6" stroke-linejoin="round"/>
<path d="M133.5 136C139.9 135.6 144.833 139.834 146.5 142C147 142.5 148.8 144.8 152 150C155.2 155.2 159.5 152 160.5 149L164.224 140.43C167 135 165.621 128.877 161 125.291L143.962 112.068C139.142 108.326 132.281 108.798 128.018 113.165L118.356 123.063C116.202 125.269 114.98 128.22 114.944 131.304L114.598 160.655C114.539 165.671 117.607 170.195 122.29 171.996L139.067 178.449C143.401 180.116 148.254 177.854 149.763 173.462C151.263 169.1 148.869 164.359 144.468 162.976L135 160C128.6 158.8 126.667 152.5 126.5 149.5C126.167 145.167 127.1 136.4 133.5 136Z" fill="#A39FB9" stroke="black" stroke-width="0.6" stroke-linecap="round" stroke-linejoin="round"/>
<path d="M592 195.5H598V354.5H427V323L436.5 304.5V240H427V176.5H552C569.6 176.5 586 162.5 592 155.5V195.5Z" fill="#CFCCE0" stroke="black" stroke-width="0.6" stroke-linecap="round" stroke-linejoin="round"/>
<rect x="427" y="177" width="81" height="63" fill="#C3C1D6"/>
<rect x="621" y="141" width="8" height="214" fill="#A39FB9" stroke="black" stroke-width="0.6"/>
<path d="M598 146H606V355H598V146Z" fill="#A39FB9" stroke="black" stroke-width="0.6"/>
<path d="M621 154L606 149V355H611L621 351.5V154Z" fill="url(#paint1_linear_372_10724)" stroke="black" stroke-width="0.6" stroke-linecap="round" stroke-linejoin="round"/>
<path d="M436.5 240H508V176.5" stroke="black" stroke-width="0.6" stroke-linecap="round" stroke-linejoin="round"/>
<path d="M592 195.5H508" stroke="black" stroke-width="0.6" stroke-linecap="round" stroke-linejoin="round"/>
<path d="M563 39V59.5H613.5V39H563Z" fill="#CFCCE0" stroke="black" stroke-width="0.6" stroke-linecap="round" stroke-linejoin="round"/>
<path d="M545.5 75.5H567.5L584.5 104.5L573 118L561.5 143V161H536.5L545.5 75.5Z" fill="#7A768B" stroke="black" stroke-width="0.6" stroke-linecap="round" stroke-linejoin="round"/>
<path d="M525.5 156V81.5C525.5 74 528.5 67.9999 536.5 68C545.735 68.0001 547.5 74.5 547 81L540.5 156C540.333 158.833 538.5 164.5 532.5 164.5C526.5 164.5 525.334 158.833 525.5 156Z" fill="#CFCCE0" stroke="black" stroke-width="0.6" stroke-linecap="round" stroke-linejoin="round"/>
<path d="M561.5 79H620V87.5H574V112H561.5V79Z" fill="#A39FB9" stroke="black" stroke-width="0.6" stroke-linecap="round" stroke-linejoin="round"/>
<path d="M567.5 75.5V79H608V75.5L613.5 59.5H563L567.5 75.5Z" fill="url(#paint2_linear_372_10724)" stroke="black" stroke-width="0.6" stroke-linecap="round" stroke-linejoin="round"/>
<path d="M569 134.5C600.2 125.7 608 99.5 608 87.5H574V107.5C572.8 108.7 568 108.667 566 108.5C563.6 105.3 562.667 104.167 561.5 104V152.5C566.3 148.1 567.833 138.667 569 134.5Z" fill="#7A768B" stroke="black" stroke-width="0.6" stroke-linecap="round" stroke-linejoin="round"/>
<path d="M419.7 236.5V133.5L365.84 130L332.426 117H217.224L188.299 130V236.5H419.7Z" fill="#918BA8" stroke="black" stroke-width="0.6" stroke-linecap="round" stroke-linejoin="round"/>
<path d="M188.299 185.5H419.7" stroke="black" stroke-width="0.6" stroke-linecap="round" stroke-linejoin="round"/>
<path d="M406.235 161.5H390.775H385.788H375.315C372.157 161.5 365.84 160.4 365.84 156V139.5L361.85 133.5V126.5C363.18 123.333 367.735 117 375.315 117H384.791H388.78H406.235C413.815 117 418.37 123.333 419.7 126.5V133.5L415.711 139.5V156C415.711 160.4 409.394 161.5 406.235 161.5Z" fill="#7A768B"/>
<path d="M390.775 161.5H406.235C409.394 161.5 415.711 160.4 415.711 156V139.5L419.7 133.5V126.5C418.37 123.333 413.815 117 406.235 117H388.78H384.791H375.315C367.735 117 363.18 123.333 361.85 126.5V133.5L365.84 139.5V156C365.84 160.4 372.157 161.5 375.315 161.5M390.775 161.5H385.788H375.315M390.775 161.5H375.315" stroke="black" stroke-width="0.6" stroke-linecap="round" stroke-linejoin="round"/>
<rect x="368.832" y="117" width="43.8865" height="38" rx="8" fill="#A39FB9" stroke="black" stroke-width="0.6"/>
<path d="M373.916 162C371.325 162 368.929 165.5 368.929 167.5L375.412 175L399.35 176.5L408.826 172L411.818 167.5C412.217 163.9 409.227 162 407.33 162H373.916Z" fill="#7A768B" stroke="black" stroke-width="0.6" stroke-linecap="round" stroke-linejoin="round"/>
<path d="M368.832 172V167.5L375.814 173C377.31 174 378.806 173 378.806 171L382.297 138C382.796 135 385.19 131 390.776 131C396.361 131 398.09 135.667 398.256 138L401.747 171C402.246 173.5 403.742 174 404.739 173L411.721 167.5V172L403.742 178H377.31L368.832 172Z" fill="#8E8AA1" stroke="black" stroke-width="0.6" stroke-linecap="round" stroke-linejoin="round"/>
<rect x="386.785" y="136" width="6.98194" height="16" rx="3.49097" fill="#7A768B" stroke="black" stroke-width="0.6"/>
<path d="M232.684 161.5H217.224H212.237H201.764C198.606 161.5 192.289 160.4 192.289 156V139.5L188.299 133.5V126.5C189.629 123.333 194.184 117 201.764 117H211.239H215.229H232.684C240.264 117 244.819 123.333 246.149 126.5V133.5L242.16 139.5V156C242.16 160.4 235.843 161.5 232.684 161.5Z" fill="#7A768B"/>
<path d="M217.224 161.5H232.684C235.843 161.5 242.16 160.4 242.16 156V139.5L246.149 133.5V126.5C244.819 123.333 240.264 117 232.684 117H215.229H211.239H201.764C194.184 117 189.629 123.333 188.299 126.5V133.5L192.289 139.5V156C192.289 160.4 198.606 161.5 201.764 161.5M217.224 161.5H212.237H201.764M217.224 161.5H201.764" stroke="black" stroke-width="0.6" stroke-linecap="round" stroke-linejoin="round"/>
<rect x="195.281" y="117" width="43.8865" height="38" rx="8" fill="#A39FB9" stroke="black" stroke-width="0.6"/>
<path d="M200.365 162C197.774 162 195.378 165.5 195.378 167.5L201.861 175L225.799 176.5L235.275 172L238.267 167.5C238.666 163.9 235.676 162 233.779 162H200.365Z" fill="#7A768B" stroke="black" stroke-width="0.6" stroke-linecap="round" stroke-linejoin="round"/>
<path d="M195.281 172V167.5L202.263 173C203.759 174 205.255 173 205.255 171L208.746 138C209.245 135 211.639 131 217.225 131C222.81 131 224.539 135.667 224.705 138L228.196 171C228.695 173.5 230.191 174 231.188 173L238.17 167.5V172L230.191 178H203.759L195.281 172Z" fill="#8E8AA1" stroke="black" stroke-width="0.6" stroke-linecap="round" stroke-linejoin="round"/>
<rect x="213.234" y="136" width="6.98194" height="16" rx="3.49097" fill="#7A768B" stroke="black" stroke-width="0.6"/>
<path d="M290.385 161.5H274.925H269.938H259.465C256.307 161.5 249.99 160.4 249.99 156V139.5L246 133.5V126.5C247.33 123.333 251.885 117 259.465 117H268.941H272.93H290.385C297.966 117 302.52 123.333 303.85 126.5V133.5L299.861 139.5V156C299.861 160.4 293.544 161.5 290.385 161.5Z" fill="#7A768B"/>
<path d="M274.925 161.5H290.385C293.544 161.5 299.861 160.4 299.861 156V139.5L303.85 133.5V126.5C302.52 123.333 297.966 117 290.385 117H272.93H268.941H259.465C251.885 117 247.33 123.333 246 126.5V133.5L249.99 139.5V156C249.99 160.4 256.307 161.5 259.465 161.5M274.925 161.5H269.938H259.465M274.925 161.5H259.465" stroke="black" stroke-width="0.6" stroke-linecap="round" stroke-linejoin="round"/>
<rect x="252.982" y="117" width="43.8865" height="38" rx="8" fill="#A39FB9" stroke="black" stroke-width="0.6"/>
<path d="M258.066 162C255.475 162 253.079 165.5 253.079 167.5L259.562 175L283.5 176.5L292.976 172L295.968 167.5C296.367 163.9 293.377 162 291.48 162H258.066Z" fill="#7A768B" stroke="black" stroke-width="0.6" stroke-linecap="round" stroke-linejoin="round"/>
<path d="M252.982 172V167.5L259.964 173C261.46 174 262.957 173 262.957 171L266.448 138C266.946 135 269.34 131 274.926 131C280.511 131 282.24 135.667 282.406 138L285.897 171C286.396 173.5 287.892 174 288.89 173L295.872 167.5V172L287.892 178H261.46L252.982 172Z" fill="#8E8AA1" stroke="black" stroke-width="0.6" stroke-linecap="round" stroke-linejoin="round"/>
<rect x="270.936" y="136" width="6.98194" height="16" rx="3.49097" fill="#7A768B" stroke="black" stroke-width="0.6"/>
<path d="M348.385 161.5H332.925H327.938H317.465C314.307 161.5 307.99 160.4 307.99 156V139.5L304 133.5V126.5C305.33 123.333 309.885 117 317.465 117H326.941H330.93H348.385C355.966 117 360.52 123.333 361.85 126.5V133.5L357.861 139.5V156C357.861 160.4 351.544 161.5 348.385 161.5Z" fill="#7A768B"/>
<path d="M332.925 161.5H348.385C351.544 161.5 357.861 160.4 357.861 156V139.5L361.85 133.5V126.5C360.52 123.333 355.966 117 348.385 117H330.93H326.941H317.465C309.885 117 305.33 123.333 304 126.5V133.5L307.99 139.5V156C307.99 160.4 314.307 161.5 317.465 161.5M332.925 161.5H327.938H317.465M332.925 161.5H317.465" stroke="black" stroke-width="0.6" stroke-linecap="round" stroke-linejoin="round"/>
<rect x="310.982" y="117" width="43.8865" height="38" rx="8" fill="#A39FB9" stroke="black" stroke-width="0.6"/>
<path d="M316.066 162C313.475 162 311.079 165.5 311.079 167.5L317.562 175L341.5 176.5L350.976 172L353.968 167.5C354.367 163.9 351.377 162 349.48 162H316.066Z" fill="#7A768B" stroke="black" stroke-width="0.6" stroke-linecap="round" stroke-linejoin="round"/>
<path d="M310.982 172V167.5L317.964 173C319.46 174 320.957 173 320.957 171L324.448 138C324.946 135 327.34 131 332.926 131C338.511 131 340.24 135.667 340.406 138L343.897 171C344.396 173.5 345.892 174 346.89 173L353.872 167.5V172L345.892 178H319.46L310.982 172Z" fill="#8E8AA1" stroke="black" stroke-width="0.6" stroke-linecap="round" stroke-linejoin="round"/>
<rect x="328.936" y="136" width="6.98194" height="16" rx="3.49097" fill="#7A768B" stroke="black" stroke-width="0.6"/>
<path d="M673.5 41L629 141.5V355.5H839.5V83L794 41H673.5Z" fill="#CFCCE0" stroke="black" stroke-width="0.6"/>
<path d="M673.5 41L629 141.5V165.5H839.5V83L794 41H673.5Z" fill="#E3E1F1" stroke="black" stroke-width="0.6"/>
<path d="M685 355.5V165M784 165V355.5" stroke="black" stroke-width="0.6"/>
<path d="M629 215H685" stroke="black" stroke-width="0.6"/>
<path d="M784 215H839.5" stroke="black" stroke-width="0.6"/>
<path d="M685 41.5V165.5M736 165.5V41" stroke="black" stroke-width="0.6"/>
<path d="M673.5 41L629 141.5V355.5H839.5V83L794 41H673.5Z" stroke="black" stroke-width="0.6"/>
<path d="M583.5 136H614V365H583.5V136Z" stroke="black" stroke-dasharray="2 2"/>
<path d="M614 136H644.5V365H614V136Z" stroke="black" stroke-dasharray="2 2"/>
<path d="M644 366H645V395H644V366Z" fill="#00C572"/>
<path d="M583 366H584V395H583V366Z" fill="#00C572"/>
<defs>
<linearGradient id="paint0_linear_372_10724" x1="315.399" y1="-57" x2="315.399" y2="408" gradientUnits="userSpaceOnUse">
<stop offset="0.0365591" stop-color="#CFCCE0"/>
<stop offset="1" stop-color="#797494"/>
</linearGradient>
<linearGradient id="paint1_linear_372_10724" x1="528" y1="328.643" x2="632.5" y2="328.643" gradientUnits="userSpaceOnUse">
<stop offset="0.28125" stop-color="#F6F5FE"/>
<stop offset="1" stop-color="#5D5675"/>
</linearGradient>
<linearGradient id="paint2_linear_372_10724" x1="598.647" y1="3" x2="598.647" y2="101" gradientUnits="userSpaceOnUse">
<stop offset="0.28125" stop-color="#F6F5FE"/>
<stop offset="1" stop-color="#5D5675"/>
</linearGradient>
</defs>
</svg>
