<svg width="812" height="448" viewBox="0 0 812 448" fill="none" xmlns="http://www.w3.org/2000/svg">
<path d="M449 0V448" stroke="black" stroke-opacity="0.38" stroke-dasharray="2 2"/>
<path d="M310 0V448" stroke="black" stroke-opacity="0.38" stroke-dasharray="2 2"/>
<path d="M149 0V448" stroke="black" stroke-opacity="0.2"/>
<path d="M584 0V448" stroke="black" stroke-opacity="0.38" stroke-dasharray="2 2"/>
<path d="M79 108H502V114H79V108Z" fill="black" fill-opacity="0.2"/>
<rect x="547" y="209" width="80" height="6" fill="black" fill-opacity="0.2"/>
<rect x="505" y="165" width="49" height="6" fill="black" fill-opacity="0.2"/>
<rect x="501" y="282" width="51" height="6" fill="black" fill-opacity="0.2"/>
<path d="M79 336H501V342H79V336Z" fill="black" fill-opacity="0.2"/>
<rect x="347.784" y="92.3" width="63.8848" height="37.4" fill="url(#paint0_linear_7_13565)" stroke="black" stroke-width="0.6"/>
<rect x="411.695" y="97.4816" width="4.58182" height="27.0364" fill="url(#paint1_linear_7_13565)" stroke="black" stroke-width="0.6"/>
<rect x="343.179" y="97.4816" width="4.58182" height="27.0364" fill="url(#paint2_linear_7_13565)" stroke="black" stroke-width="0.6"/>
<rect x="416.3" y="106.118" width="2.85455" height="9.76364" fill="url(#paint3_linear_7_13565)" stroke="black" stroke-width="0.6"/>
<rect x="340.3" y="106.118" width="2.85455" height="9.76364" fill="url(#paint4_linear_7_13565)" stroke="black" stroke-width="0.6"/>
<rect x="347.784" y="320.3" width="63.8848" height="37.4" fill="url(#paint5_linear_7_13565)" stroke="black" stroke-width="0.6"/>
<rect x="411.695" y="325.482" width="4.58182" height="27.0364" fill="url(#paint6_linear_7_13565)" stroke="black" stroke-width="0.6"/>
<rect x="343.179" y="325.482" width="4.58182" height="27.0364" fill="url(#paint7_linear_7_13565)" stroke="black" stroke-width="0.6"/>
<rect x="416.3" y="334.118" width="2.85455" height="9.76364" fill="url(#paint8_linear_7_13565)" stroke="black" stroke-width="0.6"/>
<rect x="340.3" y="334.118" width="2.85455" height="9.76364" fill="url(#paint9_linear_7_13565)" stroke="black" stroke-width="0.6"/>
<path d="M615.416 186.134V208.178L613 211.5L615.416 214.822V236.866H617.53V230.827L628.703 224.787H667.356L669.47 228.109H675.208L680.946 232.639H695.743C703.896 232.941 720.867 235.236 723.525 242V181C720.867 187.764 703.896 190.059 695.743 190.361H680.946L675.208 194.891H669.47L667.356 198.213H628.703L617.53 192.173V186.134H615.416Z" fill="url(#paint10_linear_7_13565)" stroke="black" stroke-width="0.6"/>
<path d="M629.004 198.215V224.487" stroke="black" stroke-width="0.6"/>
<path d="M660.713 198.215V224.487" stroke="black" stroke-width="0.6"/>
<path d="M679.5 70H662.5V81L666.75 82V84.5L642 84L636.5 80.5L631.5 88.5L638.5 92.5H630.5H622V114.5H626.5V144H635C635 148 635 150.5 640.5 150.5H686.5V145H706V127H713.5V96H717.5V92.5C717.5 86.9 713.167 85.5 711 85.5H685.5V89.5H681L675.25 84.5V82L679.5 81V70Z" fill="url(#paint11_linear_7_13565)" stroke="black" stroke-width="0.6"/>
<path d="M640.5 128C640.5 127.448 640.948 127 641.5 127H644.5C645.052 127 645.5 127.448 645.5 128V133C645.5 133.552 645.052 134 644.5 134H641.5C640.948 134 640.5 133.552 640.5 133V128Z" stroke="black" stroke-width="0.6"/>
<path d="M648.5 128C648.5 127.448 648.948 127 649.5 127H652.5C653.052 127 653.5 127.448 653.5 128V133C653.5 133.552 653.052 134 652.5 134H649.5C648.948 134 648.5 133.552 648.5 133V128Z" stroke="black" stroke-width="0.6"/>
<path d="M656.5 128C656.5 127.448 656.948 127 657.5 127H660.5C661.052 127 661.5 127.448 661.5 128V133C661.5 133.552 661.052 134 660.5 134H657.5C656.948 134 656.5 133.552 656.5 133V128Z" stroke="black" stroke-width="0.6"/>
<path d="M664.5 128C664.5 127.448 664.948 127 665.5 127H668.5C669.052 127 669.5 127.448 669.5 128V133C669.5 133.552 669.052 134 668.5 134H665.5C664.948 134 664.5 133.552 664.5 133V128Z" stroke="black" stroke-width="0.6"/>
<path d="M672.5 128C672.5 127.448 672.948 127 673.5 127H676.5C677.052 127 677.5 127.448 677.5 128V133C677.5 133.552 677.052 134 676.5 134H673.5C672.948 134 672.5 133.552 672.5 133V128Z" stroke="black" stroke-width="0.6"/>
<path d="M640.5 105C640.5 104.448 640.948 104 641.5 104H644.5C645.052 104 645.5 104.448 645.5 105V112C645.5 112.552 645.052 113 644.5 113H641.5C640.948 113 640.5 112.552 640.5 112V105Z" stroke="black" stroke-width="0.6"/>
<path d="M647.5 105C647.5 104.448 647.948 104 648.5 104H651.5C652.052 104 652.5 104.448 652.5 105V112C652.5 112.552 652.052 113 651.5 113H648.5C647.948 113 647.5 112.552 647.5 112V105Z" stroke="black" stroke-width="0.6"/>
<path d="M654.5 105C654.5 104.448 654.948 104 655.5 104H658.5C659.052 104 659.5 104.448 659.5 105V112C659.5 112.552 659.052 113 658.5 113H655.5C654.948 113 654.5 112.552 654.5 112V105Z" stroke="black" stroke-width="0.6"/>
<path d="M661.5 105C661.5 104.448 661.948 104 662.5 104H665.5C666.052 104 666.5 104.448 666.5 105V112C666.5 112.552 666.052 113 665.5 113H662.5C661.948 113 661.5 112.552 661.5 112V105Z" stroke="black" stroke-width="0.6"/>
<path d="M668.5 105C668.5 104.448 668.948 104 669.5 104H672.5C673.052 104 673.5 104.448 673.5 105V112C673.5 112.552 673.052 113 672.5 113H669.5C668.948 113 668.5 112.552 668.5 112V105Z" stroke="black" stroke-width="0.6"/>
<path d="M675.5 105C675.5 104.448 675.948 104 676.5 104H679.5C680.052 104 680.5 104.448 680.5 105V112C680.5 112.552 680.052 113 679.5 113H676.5C675.948 113 675.5 112.552 675.5 112V105Z" stroke="black" stroke-width="0.6"/>
<path d="M643.5 122V116H639.5V122M651.5 122V116H647.5V122M659.5 122V116H655.5V122M667.5 122V116H663.5V122M675.5 122V116H671.5V122M683.5 125V116H679.5V122" stroke="black" stroke-width="0.6" stroke-linecap="round"/>
<path d="M630.5 92.5H637.5V114.5H626" stroke="black" stroke-width="0.6"/>
<path d="M631.5 114.5V119.5C631.5 120.333 632.1 122 634.5 122H637V127H633.5C631 127 626.5 125.3 626.5 120.5V114.5" stroke="black" stroke-width="0.6"/>
<path d="M637.5 100H683H685.5H701V92H685.5" stroke="black" stroke-width="0.6"/>
<path d="M636.5 127H712.5" stroke="black" stroke-width="0.6"/>
<path d="M636.5 122H639.5" stroke="black" stroke-width="0.6"/>
<path d="M643.5 122H647.5" stroke="black" stroke-width="0.6"/>
<path d="M651.5 122H655.5" stroke="black" stroke-width="0.6"/>
<path d="M659.5 122H663.5" stroke="black" stroke-width="0.6"/>
<path d="M667.5 122H671.5" stroke="black" stroke-width="0.6"/>
<path d="M675.5 122H679.5" stroke="black" stroke-width="0.6"/>
<path d="M626.5 137H706" stroke="black" stroke-width="0.6"/>
<path d="M660.5 137V150.5" stroke="black" stroke-width="0.6"/>
<path d="M663.5 137V150.5" stroke="black" stroke-width="0.6"/>
<path d="M685.5 89V115C685.5 116.657 686.843 118 688.5 118H713.5" stroke="black" stroke-width="0.6"/>
<circle cx="701.5" cy="132.5" r="2" stroke="black" stroke-width="0.6"/>
<path d="M709.5 85.5V118" stroke="black" stroke-width="0.6"/>
<path d="M637.5 92.5H653.5V100" stroke="black" stroke-width="0.6"/>
<path d="M653.5 92.5H661.75C663.821 92.5 665.5 94.1789 665.5 96.25V96.25C665.5 98.3211 663.821 100 661.75 100H653.5V92.5Z" stroke="black" stroke-width="0.6"/>
<path d="M685.5 115.5L683 127" stroke="black" stroke-width="0.6"/>
<path d="M692.5 127L694.5 118V105.5H685.5" stroke="black" stroke-width="0.6"/>
<path d="M238.5 136H221.5V147L225.75 148V150.5L201 150L195.5 146.5L190.5 154.5L197.5 158.5H189.5H181V180.5H185.5V210H194C194 214 194 216.5 199.5 216.5H245.5V211H265V193H272.5V162H276.5V158.5C276.5 152.9 272.167 151.5 270 151.5H244.5V155.5H240L234.25 150.5V148L238.5 147V136Z" fill="url(#paint12_linear_7_13565)" stroke="black" stroke-width="0.6"/>
<path d="M199.5 194C199.5 193.448 199.948 193 200.5 193H203.5C204.052 193 204.5 193.448 204.5 194V199C204.5 199.552 204.052 200 203.5 200H200.5C199.948 200 199.5 199.552 199.5 199V194Z" stroke="black" stroke-width="0.6"/>
<path d="M207.5 194C207.5 193.448 207.948 193 208.5 193H211.5C212.052 193 212.5 193.448 212.5 194V199C212.5 199.552 212.052 200 211.5 200H208.5C207.948 200 207.5 199.552 207.5 199V194Z" stroke="black" stroke-width="0.6"/>
<path d="M215.5 194C215.5 193.448 215.948 193 216.5 193H219.5C220.052 193 220.5 193.448 220.5 194V199C220.5 199.552 220.052 200 219.5 200H216.5C215.948 200 215.5 199.552 215.5 199V194Z" stroke="black" stroke-width="0.6"/>
<path d="M223.5 194C223.5 193.448 223.948 193 224.5 193H227.5C228.052 193 228.5 193.448 228.5 194V199C228.5 199.552 228.052 200 227.5 200H224.5C223.948 200 223.5 199.552 223.5 199V194Z" stroke="black" stroke-width="0.6"/>
<path d="M231.5 194C231.5 193.448 231.948 193 232.5 193H235.5C236.052 193 236.5 193.448 236.5 194V199C236.5 199.552 236.052 200 235.5 200H232.5C231.948 200 231.5 199.552 231.5 199V194Z" stroke="black" stroke-width="0.6"/>
<path d="M199.5 171C199.5 170.448 199.948 170 200.5 170H203.5C204.052 170 204.5 170.448 204.5 171V178C204.5 178.552 204.052 179 203.5 179H200.5C199.948 179 199.5 178.552 199.5 178V171Z" stroke="black" stroke-width="0.6"/>
<path d="M206.5 171C206.5 170.448 206.948 170 207.5 170H210.5C211.052 170 211.5 170.448 211.5 171V178C211.5 178.552 211.052 179 210.5 179H207.5C206.948 179 206.5 178.552 206.5 178V171Z" stroke="black" stroke-width="0.6"/>
<path d="M213.5 171C213.5 170.448 213.948 170 214.5 170H217.5C218.052 170 218.5 170.448 218.5 171V178C218.5 178.552 218.052 179 217.5 179H214.5C213.948 179 213.5 178.552 213.5 178V171Z" stroke="black" stroke-width="0.6"/>
<path d="M220.5 171C220.5 170.448 220.948 170 221.5 170H224.5C225.052 170 225.5 170.448 225.5 171V178C225.5 178.552 225.052 179 224.5 179H221.5C220.948 179 220.5 178.552 220.5 178V171Z" stroke="black" stroke-width="0.6"/>
<path d="M227.5 171C227.5 170.448 227.948 170 228.5 170H231.5C232.052 170 232.5 170.448 232.5 171V178C232.5 178.552 232.052 179 231.5 179H228.5C227.948 179 227.5 178.552 227.5 178V171Z" stroke="black" stroke-width="0.6"/>
<path d="M234.5 171C234.5 170.448 234.948 170 235.5 170H238.5C239.052 170 239.5 170.448 239.5 171V178C239.5 178.552 239.052 179 238.5 179H235.5C234.948 179 234.5 178.552 234.5 178V171Z" stroke="black" stroke-width="0.6"/>
<path d="M202.5 188V182H198.5V188M210.5 188V182H206.5V188M218.5 188V182H214.5V188M226.5 188V182H222.5V188M234.5 188V182H230.5V188M242.5 191V182H238.5V188" stroke="black" stroke-width="0.6" stroke-linecap="round"/>
<path d="M189.5 158.5H196.5V180.5H185" stroke="black" stroke-width="0.6"/>
<path d="M190.5 180.5V185.5C190.5 186.333 191.1 188 193.5 188H196V193H192.5C190 193 185.5 191.3 185.5 186.5V180.5" stroke="black" stroke-width="0.6"/>
<path d="M196.5 166H242H244.5H260V158H244.5" stroke="black" stroke-width="0.6"/>
<path d="M195.5 193H271.5" stroke="black" stroke-width="0.6"/>
<path d="M195.5 188H198.5" stroke="black" stroke-width="0.6"/>
<path d="M202.5 188H206.5" stroke="black" stroke-width="0.6"/>
<path d="M210.5 188H214.5" stroke="black" stroke-width="0.6"/>
<path d="M218.5 188H222.5" stroke="black" stroke-width="0.6"/>
<path d="M226.5 188H230.5" stroke="black" stroke-width="0.6"/>
<path d="M234.5 188H238.5" stroke="black" stroke-width="0.6"/>
<path d="M185.5 203H265" stroke="black" stroke-width="0.6"/>
<path d="M219.5 203V216.5" stroke="black" stroke-width="0.6"/>
<path d="M222.5 203V216.5" stroke="black" stroke-width="0.6"/>
<path d="M244.5 155V181C244.5 182.657 245.843 184 247.5 184H272.5" stroke="black" stroke-width="0.6"/>
<circle cx="260.5" cy="198.5" r="2" stroke="black" stroke-width="0.6"/>
<path d="M268.5 151.5V184" stroke="black" stroke-width="0.6"/>
<path d="M196.5 158.5H212.5V166" stroke="black" stroke-width="0.6"/>
<path d="M212.5 158.5H220.75C222.821 158.5 224.5 160.179 224.5 162.25V162.25C224.5 164.321 222.821 166 220.75 166H212.5V158.5Z" stroke="black" stroke-width="0.6"/>
<path d="M244.5 181.5L242 193" stroke="black" stroke-width="0.6"/>
<path d="M251.5 193L253.5 184V171.5H244.5" stroke="black" stroke-width="0.6"/>
<path d="M238.5 235H221.5V246L225.75 247V249.5L201 249L195.5 245.5L190.5 253.5L197.5 257.5H189.5H181V279.5H185.5V309H194C194 313 194 315.5 199.5 315.5H245.5V310H265V292H272.5V261H276.5V257.5C276.5 251.9 272.167 250.5 270 250.5H244.5V254.5H240L234.25 249.5V247L238.5 246V235Z" fill="url(#paint13_linear_7_13565)" stroke="black" stroke-width="0.6"/>
<path d="M199.5 293C199.5 292.448 199.948 292 200.5 292H203.5C204.052 292 204.5 292.448 204.5 293V298C204.5 298.552 204.052 299 203.5 299H200.5C199.948 299 199.5 298.552 199.5 298V293Z" stroke="black" stroke-width="0.6"/>
<path d="M207.5 293C207.5 292.448 207.948 292 208.5 292H211.5C212.052 292 212.5 292.448 212.5 293V298C212.5 298.552 212.052 299 211.5 299H208.5C207.948 299 207.5 298.552 207.5 298V293Z" stroke="black" stroke-width="0.6"/>
<path d="M215.5 293C215.5 292.448 215.948 292 216.5 292H219.5C220.052 292 220.5 292.448 220.5 293V298C220.5 298.552 220.052 299 219.5 299H216.5C215.948 299 215.5 298.552 215.5 298V293Z" stroke="black" stroke-width="0.6"/>
<path d="M223.5 293C223.5 292.448 223.948 292 224.5 292H227.5C228.052 292 228.5 292.448 228.5 293V298C228.5 298.552 228.052 299 227.5 299H224.5C223.948 299 223.5 298.552 223.5 298V293Z" stroke="black" stroke-width="0.6"/>
<path d="M231.5 293C231.5 292.448 231.948 292 232.5 292H235.5C236.052 292 236.5 292.448 236.5 293V298C236.5 298.552 236.052 299 235.5 299H232.5C231.948 299 231.5 298.552 231.5 298V293Z" stroke="black" stroke-width="0.6"/>
<path d="M199.5 270C199.5 269.448 199.948 269 200.5 269H203.5C204.052 269 204.5 269.448 204.5 270V277C204.5 277.552 204.052 278 203.5 278H200.5C199.948 278 199.5 277.552 199.5 277V270Z" stroke="black" stroke-width="0.6"/>
<path d="M206.5 270C206.5 269.448 206.948 269 207.5 269H210.5C211.052 269 211.5 269.448 211.5 270V277C211.5 277.552 211.052 278 210.5 278H207.5C206.948 278 206.5 277.552 206.5 277V270Z" stroke="black" stroke-width="0.6"/>
<path d="M213.5 270C213.5 269.448 213.948 269 214.5 269H217.5C218.052 269 218.5 269.448 218.5 270V277C218.5 277.552 218.052 278 217.5 278H214.5C213.948 278 213.5 277.552 213.5 277V270Z" stroke="black" stroke-width="0.6"/>
<path d="M220.5 270C220.5 269.448 220.948 269 221.5 269H224.5C225.052 269 225.5 269.448 225.5 270V277C225.5 277.552 225.052 278 224.5 278H221.5C220.948 278 220.5 277.552 220.5 277V270Z" stroke="black" stroke-width="0.6"/>
<path d="M227.5 270C227.5 269.448 227.948 269 228.5 269H231.5C232.052 269 232.5 269.448 232.5 270V277C232.5 277.552 232.052 278 231.5 278H228.5C227.948 278 227.5 277.552 227.5 277V270Z" stroke="black" stroke-width="0.6"/>
<path d="M234.5 270C234.5 269.448 234.948 269 235.5 269H238.5C239.052 269 239.5 269.448 239.5 270V277C239.5 277.552 239.052 278 238.5 278H235.5C234.948 278 234.5 277.552 234.5 277V270Z" stroke="black" stroke-width="0.6"/>
<path d="M202.5 287V281H198.5V287M210.5 287V281H206.5V287M218.5 287V281H214.5V287M226.5 287V281H222.5V287M234.5 287V281H230.5V287M242.5 290V281H238.5V287" stroke="black" stroke-width="0.6" stroke-linecap="round"/>
<path d="M189.5 257.5H196.5V279.5H185" stroke="black" stroke-width="0.6"/>
<path d="M190.5 279.5V284.5C190.5 285.333 191.1 287 193.5 287H196V292H192.5C190 292 185.5 290.3 185.5 285.5V279.5" stroke="black" stroke-width="0.6"/>
<path d="M196.5 265H242H244.5H260V257H244.5" stroke="black" stroke-width="0.6"/>
<path d="M195.5 292H271.5" stroke="black" stroke-width="0.6"/>
<path d="M195.5 287H198.5" stroke="black" stroke-width="0.6"/>
<path d="M202.5 287H206.5" stroke="black" stroke-width="0.6"/>
<path d="M210.5 287H214.5" stroke="black" stroke-width="0.6"/>
<path d="M218.5 287H222.5" stroke="black" stroke-width="0.6"/>
<path d="M226.5 287H230.5" stroke="black" stroke-width="0.6"/>
<path d="M234.5 287H238.5" stroke="black" stroke-width="0.6"/>
<path d="M185.5 302H265" stroke="black" stroke-width="0.6"/>
<path d="M219.5 302V315.5" stroke="black" stroke-width="0.6"/>
<path d="M222.5 302V315.5" stroke="black" stroke-width="0.6"/>
<path d="M244.5 254V280C244.5 281.657 245.843 283 247.5 283H272.5" stroke="black" stroke-width="0.6"/>
<circle cx="260.5" cy="297.5" r="2" stroke="black" stroke-width="0.6"/>
<path d="M268.5 250.5V283" stroke="black" stroke-width="0.6"/>
<path d="M196.5 257.5H212.5V265" stroke="black" stroke-width="0.6"/>
<path d="M212.5 257.5H220.75C222.821 257.5 224.5 259.179 224.5 261.25V261.25C224.5 263.321 222.821 265 220.75 265H212.5V257.5Z" stroke="black" stroke-width="0.6"/>
<path d="M244.5 280.5L242 292" stroke="black" stroke-width="0.6"/>
<path d="M251.5 292L253.5 283V270.5H244.5" stroke="black" stroke-width="0.6"/>
<path d="M679.5 286H662.5V297L666.75 298V300.5L642 300L636.5 296.5L631.5 304.5L638.5 308.5H630.5H622V330.5H626.5V360H635C635 364 635 366.5 640.5 366.5H686.5V361H706V343H713.5V312H717.5V308.5C717.5 302.9 713.167 301.5 711 301.5H685.5V305.5H681L675.25 300.5V298L679.5 297V286Z" fill="url(#paint14_linear_7_13565)" stroke="black" stroke-width="0.6"/>
<path d="M640.5 344C640.5 343.448 640.948 343 641.5 343H644.5C645.052 343 645.5 343.448 645.5 344V349C645.5 349.552 645.052 350 644.5 350H641.5C640.948 350 640.5 349.552 640.5 349V344Z" stroke="black" stroke-width="0.6"/>
<path d="M648.5 344C648.5 343.448 648.948 343 649.5 343H652.5C653.052 343 653.5 343.448 653.5 344V349C653.5 349.552 653.052 350 652.5 350H649.5C648.948 350 648.5 349.552 648.5 349V344Z" stroke="black" stroke-width="0.6"/>
<path d="M656.5 344C656.5 343.448 656.948 343 657.5 343H660.5C661.052 343 661.5 343.448 661.5 344V349C661.5 349.552 661.052 350 660.5 350H657.5C656.948 350 656.5 349.552 656.5 349V344Z" stroke="black" stroke-width="0.6"/>
<path d="M664.5 344C664.5 343.448 664.948 343 665.5 343H668.5C669.052 343 669.5 343.448 669.5 344V349C669.5 349.552 669.052 350 668.5 350H665.5C664.948 350 664.5 349.552 664.5 349V344Z" stroke="black" stroke-width="0.6"/>
<path d="M672.5 344C672.5 343.448 672.948 343 673.5 343H676.5C677.052 343 677.5 343.448 677.5 344V349C677.5 349.552 677.052 350 676.5 350H673.5C672.948 350 672.5 349.552 672.5 349V344Z" stroke="black" stroke-width="0.6"/>
<path d="M640.5 321C640.5 320.448 640.948 320 641.5 320H644.5C645.052 320 645.5 320.448 645.5 321V328C645.5 328.552 645.052 329 644.5 329H641.5C640.948 329 640.5 328.552 640.5 328V321Z" stroke="black" stroke-width="0.6"/>
<path d="M647.5 321C647.5 320.448 647.948 320 648.5 320H651.5C652.052 320 652.5 320.448 652.5 321V328C652.5 328.552 652.052 329 651.5 329H648.5C647.948 329 647.5 328.552 647.5 328V321Z" stroke="black" stroke-width="0.6"/>
<path d="M654.5 321C654.5 320.448 654.948 320 655.5 320H658.5C659.052 320 659.5 320.448 659.5 321V328C659.5 328.552 659.052 329 658.5 329H655.5C654.948 329 654.5 328.552 654.5 328V321Z" stroke="black" stroke-width="0.6"/>
<path d="M661.5 321C661.5 320.448 661.948 320 662.5 320H665.5C666.052 320 666.5 320.448 666.5 321V328C666.5 328.552 666.052 329 665.5 329H662.5C661.948 329 661.5 328.552 661.5 328V321Z" stroke="black" stroke-width="0.6"/>
<path d="M668.5 321C668.5 320.448 668.948 320 669.5 320H672.5C673.052 320 673.5 320.448 673.5 321V328C673.5 328.552 673.052 329 672.5 329H669.5C668.948 329 668.5 328.552 668.5 328V321Z" stroke="black" stroke-width="0.6"/>
<path d="M675.5 321C675.5 320.448 675.948 320 676.5 320H679.5C680.052 320 680.5 320.448 680.5 321V328C680.5 328.552 680.052 329 679.5 329H676.5C675.948 329 675.5 328.552 675.5 328V321Z" stroke="black" stroke-width="0.6"/>
<path d="M643.5 338V332H639.5V338M651.5 338V332H647.5V338M659.5 338V332H655.5V338M667.5 338V332H663.5V338M675.5 338V332H671.5V338M683.5 341V332H679.5V338" stroke="black" stroke-width="0.6" stroke-linecap="round"/>
<path d="M630.5 308.5H637.5V330.5H626" stroke="black" stroke-width="0.6"/>
<path d="M631.5 330.5V335.5C631.5 336.333 632.1 338 634.5 338H637V343H633.5C631 343 626.5 341.3 626.5 336.5V330.5" stroke="black" stroke-width="0.6"/>
<path d="M637.5 316H683H685.5H701V308H685.5" stroke="black" stroke-width="0.6"/>
<path d="M636.5 343H712.5" stroke="black" stroke-width="0.6"/>
<path d="M636.5 338H639.5" stroke="black" stroke-width="0.6"/>
<path d="M643.5 338H647.5" stroke="black" stroke-width="0.6"/>
<path d="M651.5 338H655.5" stroke="black" stroke-width="0.6"/>
<path d="M659.5 338H663.5" stroke="black" stroke-width="0.6"/>
<path d="M667.5 338H671.5" stroke="black" stroke-width="0.6"/>
<path d="M675.5 338H679.5" stroke="black" stroke-width="0.6"/>
<path d="M626.5 353H706" stroke="black" stroke-width="0.6"/>
<path d="M660.5 353V366.5" stroke="black" stroke-width="0.6"/>
<path d="M663.5 353V366.5" stroke="black" stroke-width="0.6"/>
<path d="M685.5 305V331C685.5 332.657 686.843 334 688.5 334H713.5" stroke="black" stroke-width="0.6"/>
<circle cx="701.5" cy="348.5" r="2" stroke="black" stroke-width="0.6"/>
<path d="M709.5 301.5V334" stroke="black" stroke-width="0.6"/>
<path d="M637.5 308.5H653.5V316" stroke="black" stroke-width="0.6"/>
<path d="M653.5 308.5H661.75C663.821 308.5 665.5 310.179 665.5 312.25V312.25C665.5 314.321 663.821 316 661.75 316H653.5V308.5Z" stroke="black" stroke-width="0.6"/>
<path d="M685.5 331.5L683 343" stroke="black" stroke-width="0.6"/>
<path d="M692.5 343L694.5 334V321.5H685.5" stroke="black" stroke-width="0.6"/>
<path d="M60.0024 88.2223C60.0024 81.2223 59.0001 67.7223 58.5029 65.2223C58.1052 63.2226 59.8032 62.222 61.0029 63.7223C62.7563 65.915 64.5102 82.3376 63.5661 99.1606C65.7501 97.2439 77.5 98.2958 77.5 105.223V116.312C77.5 121.291 71.4294 123.235 67.2041 123.222L67.4993 123.223C65.9992 123.223 63.5587 123.716 63.4993 127.224C62.9993 156.723 60.6173 157.224 59.4993 157.224C58.4993 157.224 57.4993 156.223 57.9993 154.224C58.542 152.055 59.9993 135.224 59.4993 129.224C59.2953 126.776 58.303 125.395 57.1582 124.694L57.2815 124.704C56.5006 124.568 56.5002 123.684 56.5 123.223V123.463C48.3547 126.702 41.4222 122.986 39 120.261V101.223C41.6667 98.2229 49.8 94.0224 59 99.2224L59.1424 99.4999C59.6371 94.7247 60.0024 90.4828 60.0024 88.2223Z" fill="url(#paint15_linear_7_13565)"/>
<path d="M58.5 103.121C55.3061 104.17 53 107.177 53 110.722C53 113.656 54.5792 116.221 56.9339 117.613M63.335 103.068C66.6142 104.067 69 107.116 69 110.722C69 115.141 65.4183 118.722 61 118.722C60.6613 118.722 60.3276 118.701 60 118.66" stroke="black" stroke-width="0.6" stroke-linecap="round"/>
<path d="M63.0024 113.722C62.0024 114.556 60.603 115.222 60.0024 118.222C59.6853 119.807 59 124.722 57.5 124.722C56.5 124.722 56.5002 123.722 56.5 123.222C56.4991 121.222 60.0024 95.2223 60.0024 88.2223C60.0024 81.2223 59.0001 67.7224 58.5029 65.2223C58.1052 63.2227 59.8032 62.2221 61.0029 63.7223C63.0022 66.2225 65.002 87.2226 63.0024 106.222" stroke="black" stroke-width="0.6" stroke-linecap="round"/>
<path d="M59.4993 129.224L59.2003 129.249L59.4993 129.224ZM57.9993 154.224L57.7082 154.151L57.9993 154.224ZM63.4993 127.224L63.1993 127.219L63.4993 127.224ZM67.4993 123.223V123.523C67.6399 123.523 67.7617 123.426 67.7921 123.288C67.8226 123.151 67.7536 123.011 67.6262 122.952L67.4993 123.223ZM59.2003 129.249C59.4481 132.222 59.2109 137.907 58.841 143.139C58.6564 145.751 58.4393 148.243 58.2345 150.216C58.0286 152.2 57.8376 153.634 57.7082 154.151L58.2903 154.297C58.4323 153.73 58.6269 152.247 58.8313 150.278C59.0368 148.297 59.2545 145.799 59.4395 143.182C59.809 137.956 60.0504 132.225 59.7982 129.199L59.2003 129.249ZM57.7082 154.151C57.4444 155.206 57.5653 156.045 57.9323 156.633C58.3 157.221 58.8965 157.524 59.4993 157.524V156.924C59.102 156.924 58.6985 156.727 58.4412 156.315C58.1833 155.902 58.0542 155.241 58.2903 154.297L57.7082 154.151ZM59.4993 157.524C59.6508 157.524 59.8578 157.517 60.0859 157.423C60.3162 157.328 60.5434 157.156 60.764 156.867C61.1951 156.303 61.6239 155.263 62.0247 153.348C62.8288 149.505 63.5492 141.98 63.7992 127.229L63.1993 127.219C62.9493 141.968 62.2288 149.443 61.4374 153.225C61.0404 155.122 60.6329 156.051 60.2873 156.503C60.1195 156.722 59.9733 156.82 59.8573 156.868C59.7393 156.916 59.6272 156.924 59.4993 156.924V157.524ZM63.7992 127.229C63.8276 125.553 64.4185 124.651 65.1307 124.154C65.8617 123.644 66.7733 123.523 67.4993 123.523V122.923C66.7252 122.923 65.6666 123.049 64.7874 123.662C63.8895 124.289 63.2304 125.387 63.1993 127.219L63.7992 127.229ZM67.6262 122.952C65.9464 122.167 62.6599 121.272 59.2095 121.78L59.2968 122.374C62.608 121.886 65.7756 122.75 67.3724 123.495L67.6262 122.952ZM57.0016 124.95C58.0505 125.592 59.0028 126.879 59.2003 129.249L59.7982 129.199C59.5879 126.674 58.5554 125.198 57.3148 124.438L57.0016 124.95Z" fill="black"/>
<path d="M59 99.2224C49.8 94.0224 41.6667 98.2229 39 101.223V120.262C41.4222 122.986 48.3547 126.702 56.5 123.463" stroke="black" stroke-width="0.6"/>
<path d="M63.5 99.2225C65.5 97.2223 77.5 98.2226 77.5 105.223V116.312C77.5 121.298 71.4135 123.24 67.1875 123.222" stroke="black" stroke-width="0.6"/>
<path d="M77.5 105.723C77.5 105.17 77.9477 104.723 78.5 104.723C79.0523 104.723 79.5 105.17 79.5 105.723V115.723C79.5 116.275 79.0523 116.723 78.5 116.723C77.9477 116.723 77.5 116.275 77.5 115.723V105.723Z" fill="white" stroke="black" stroke-width="0.6"/>
<path d="M60.0024 316.222C60.0024 309.222 59.0001 295.722 58.5029 293.222C58.1052 291.223 59.8032 290.222 61.0029 291.722C62.7563 293.915 64.5102 310.338 63.5661 327.161C65.7501 325.244 77.5 326.296 77.5 333.223V344.312C77.5 349.291 71.4294 351.235 67.2041 351.222L67.4993 351.223C65.9992 351.223 63.5587 351.716 63.4993 355.224C62.9993 384.723 60.6173 385.224 59.4993 385.224C58.4993 385.224 57.4993 384.223 57.9993 382.224C58.542 380.055 59.9993 363.224 59.4993 357.224C59.2953 354.776 58.303 353.395 57.1582 352.694L57.2815 352.704C56.5006 352.568 56.5002 351.684 56.5 351.223V351.463C48.3547 354.702 41.4222 350.986 39 348.261V329.223C41.6667 326.223 49.8 322.022 59 327.222L59.1424 327.5C59.6371 322.725 60.0024 318.483 60.0024 316.222Z" fill="url(#paint16_linear_7_13565)"/>
<path d="M58.5 331.121C55.3061 332.17 53 335.177 53 338.722C53 341.656 54.5792 344.221 56.9339 345.613M63.335 331.068C66.6142 332.067 69 335.116 69 338.722C69 343.141 65.4183 346.722 61 346.722C60.6613 346.722 60.3276 346.701 60 346.66" stroke="black" stroke-width="0.6" stroke-linecap="round"/>
<path d="M63.0024 341.722C62.0024 342.556 60.603 343.222 60.0024 346.222C59.6853 347.807 59 352.722 57.5 352.722C56.5 352.722 56.5002 351.722 56.5 351.222C56.4991 349.222 60.0024 323.222 60.0024 316.222C60.0024 309.222 59.0001 295.722 58.5029 293.222C58.1052 291.223 59.8032 290.222 61.0029 291.722C63.0022 294.223 65.002 315.223 63.0024 334.222" stroke="black" stroke-width="0.6" stroke-linecap="round"/>
<path d="M59.4993 357.224L59.2003 357.249L59.4993 357.224ZM57.9993 382.224L57.7082 382.151L57.9993 382.224ZM63.4993 355.224L63.1993 355.219L63.4993 355.224ZM67.4993 351.223V351.523C67.6399 351.523 67.7617 351.426 67.7921 351.288C67.8226 351.151 67.7536 351.011 67.6262 350.952L67.4993 351.223ZM59.2003 357.249C59.4481 360.222 59.2109 365.907 58.841 371.139C58.6564 373.751 58.4393 376.243 58.2345 378.216C58.0286 380.2 57.8376 381.634 57.7082 382.151L58.2903 382.297C58.4323 381.73 58.6269 380.247 58.8313 378.278C59.0368 376.297 59.2545 373.799 59.4395 371.182C59.809 365.956 60.0504 360.225 59.7982 357.199L59.2003 357.249ZM57.7082 382.151C57.4444 383.206 57.5653 384.045 57.9323 384.633C58.3 385.221 58.8965 385.524 59.4993 385.524V384.924C59.102 384.924 58.6985 384.727 58.4412 384.315C58.1833 383.902 58.0542 383.241 58.2903 382.297L57.7082 382.151ZM59.4993 385.524C59.6508 385.524 59.8578 385.517 60.0859 385.423C60.3162 385.328 60.5434 385.156 60.764 384.867C61.1951 384.303 61.6239 383.263 62.0247 381.348C62.8288 377.505 63.5492 369.98 63.7992 355.229L63.1993 355.219C62.9493 369.968 62.2288 377.443 61.4374 381.225C61.0404 383.122 60.6329 384.051 60.2873 384.503C60.1195 384.722 59.9733 384.82 59.8573 384.868C59.7393 384.916 59.6272 384.924 59.4993 384.924V385.524ZM63.7992 355.229C63.8276 353.553 64.4185 352.651 65.1307 352.154C65.8617 351.644 66.7733 351.523 67.4993 351.523V350.923C66.7252 350.923 65.6666 351.049 64.7874 351.662C63.8895 352.289 63.2304 353.387 63.1993 355.219L63.7992 355.229ZM67.6262 350.952C65.9464 350.167 62.6599 349.272 59.2095 349.78L59.2968 350.374C62.608 349.886 65.7756 350.75 67.3724 351.495L67.6262 350.952ZM57.0016 352.95C58.0505 353.592 59.0028 354.879 59.2003 357.249L59.7982 357.199C59.5879 354.674 58.5554 353.198 57.3148 352.438L57.0016 352.95Z" fill="black"/>
<path d="M59 327.222C49.8 322.022 41.6667 326.223 39 329.223V348.262C41.4222 350.986 48.3547 354.702 56.5 351.463" stroke="black" stroke-width="0.6"/>
<path d="M63.5 327.223C65.5 325.222 77.5 326.223 77.5 333.223V344.312C77.5 349.298 71.4135 351.24 67.1875 351.222" stroke="black" stroke-width="0.6"/>
<path d="M77.5 333.723C77.5 333.17 77.9477 332.723 78.5 332.723C79.0523 332.723 79.5 333.17 79.5 333.723V343.723C79.5 344.275 79.0523 344.723 78.5 344.723C77.9477 344.723 77.5 344.275 77.5 343.723V333.723Z" fill="white" stroke="black" stroke-width="0.6"/>
<path d="M511.102 156H498.999V185.463H511.102V156Z" fill="url(#paint17_linear_7_13565)" stroke="black" stroke-width="0.6" stroke-linejoin="round"/>
<path d="M499 158.423L511.103 156.91M499 161.147L511.103 159.635M499 163.868L511.103 162.355M499 166.594L511.103 165.081M499 169.317L511.103 167.804M499 172.039L511.103 170.526M499 174.761L511.103 173.249M499 177.484L511.103 175.971M499 180.21L511.103 178.697M499 182.931L511.103 181.418M499 185.655L511.103 184.142" stroke="black" stroke-opacity="0.4" stroke-width="0.6"/>
<path d="M511.102 269H498.999V298.463H511.102V269Z" fill="url(#paint18_linear_7_13565)" stroke="black" stroke-width="0.6" stroke-linejoin="round"/>
<path d="M499 271.423L511.103 269.91M499 274.147L511.103 272.635M499 276.868L511.103 275.355M499 279.594L511.103 278.081M499 282.317L511.103 280.804M499 285.039L511.103 283.526M499 287.761L511.103 286.249M499 290.484L511.103 288.971M499 293.21L511.103 291.697M499 295.931L511.103 294.418M499 298.655L511.103 297.142" stroke="black" stroke-opacity="0.4" stroke-width="0.6"/>
<path d="M558.102 199H545.999V228.463H558.102V199Z" fill="url(#paint19_linear_7_13565)" stroke="black" stroke-width="0.6" stroke-linejoin="round"/>
<path d="M546 201.423L558.103 199.91M546 204.147L558.103 202.635M546 206.868L558.103 205.355M546 209.594L558.103 208.081M546 212.317L558.103 210.804M546 215.039L558.103 213.526M546 217.761L558.103 216.249M546 220.484L558.103 218.971M546 223.21L558.103 221.697M546 225.931L558.103 224.418M546 228.655L558.103 227.142" stroke="black" stroke-opacity="0.4" stroke-width="0.6"/>
<path d="M558.102 228H545.999V257.463H558.102V228Z" fill="url(#paint20_linear_7_13565)" stroke="black" stroke-width="0.6" stroke-linejoin="round"/>
<path d="M546 230.423L558.103 228.91M546 233.147L558.103 231.635M546 235.868L558.103 234.355M546 238.594L558.103 237.081M546 241.317L558.103 239.804M546 244.039L558.103 242.526M546 246.761L558.103 245.249M546 249.484L558.103 247.971M546 252.21L558.103 250.697M546 254.931L558.103 253.418M546 257.655L558.103 256.142" stroke="black" stroke-opacity="0.4" stroke-width="0.6"/>
<rect x="499" y="70" width="12.1028" height="86.5352" fill="url(#paint21_linear_7_13565)" stroke="black" stroke-width="0.6" stroke-linejoin="round"/>
<path d="M499 71.8136L511.103 70.3008M499 74.538L511.103 73.0252M499 77.2585L511.103 75.7456M499 79.9848L511.103 78.472M499 82.7073L511.103 81.1944M499 85.4297L511.103 83.9168M499 88.1521L511.103 86.6392M499 90.8745L511.103 89.3617M499 93.6009L511.103 92.088M499 96.3213L511.103 94.8085M499 99.0457L511.103 97.5329M499 101.768L511.103 100.255M499 104.491L511.103 102.978M499 107.213L511.103 105.7M499 109.937L511.103 108.424M499 112.662L511.103 111.149M499 115.386L511.103 113.873M499 118.105L511.103 116.592M499 120.829L511.103 119.316M499 123.553L511.103 122.041M499 126.276L511.103 124.763M499 129L511.103 127.487M499 131.721L511.103 130.208M499 134.445L511.103 132.932M499 137.169L511.103 135.657M499 139.892L511.103 138.379M499 142.616L511.103 141.103M499 145.339L511.103 143.826M499 148.059L511.103 146.546M499 150.783L511.103 149.271M499 153.51L511.103 151.997M499 156.23L511.103 154.717" stroke="black" stroke-opacity="0.4" stroke-width="0.6"/>
<path d="M546 145H558.103V199.535H546V145Z" fill="url(#paint22_linear_7_13565)" stroke="black" stroke-width="0.6" stroke-linejoin="round"/>
<path d="M546 147.491L558.103 145.979M546 150.214L558.103 148.701M546 152.938L558.103 151.425M546 155.663L558.103 154.15M546 158.387L558.103 156.874M546 161.105L558.103 159.593M546 163.83L558.103 162.317M546 166.554L558.103 165.041M546 169.277L558.103 167.764M546 172.001L558.103 170.488M546 174.721L558.103 173.209M546 177.446L558.103 175.933M546 180.17L558.103 178.657M546 182.893L558.103 181.38M546 185.617L558.103 184.104M546 188.339L558.103 186.827M546 191.06L558.103 189.547M546 193.784L558.103 192.271M546 196.511L558.103 194.998M546 199.231L558.103 197.718" stroke="black" stroke-opacity="0.4" stroke-width="0.6"/>
<path d="M546 257H558.103V311.535H546V257Z" fill="url(#paint23_linear_7_13565)" stroke="black" stroke-width="0.6" stroke-linejoin="round"/>
<path d="M546 259.491L558.103 257.979M546 262.214L558.103 260.701M546 264.938L558.103 263.425M546 267.663L558.103 266.15M546 270.387L558.103 268.874M546 273.105L558.103 271.593M546 275.83L558.103 274.317M546 278.554L558.103 277.041M546 281.277L558.103 279.764M546 284.001L558.103 282.488M546 286.721L558.103 285.209M546 289.446L558.103 287.933M546 292.17L558.103 290.657M546 294.893L558.103 293.38M546 297.617L558.103 296.104M546 300.339L558.103 298.827M546 303.06L558.103 301.547M546 305.784L558.103 304.271M546 308.511L558.103 306.998M546 311.231L558.103 309.718" stroke="black" stroke-opacity="0.4" stroke-width="0.6"/>
<rect x="499" y="298" width="12.1028" height="86.5352" fill="url(#paint24_linear_7_13565)" stroke="black" stroke-width="0.6" stroke-linejoin="round"/>
<path d="M499 299.814L511.103 298.301M499 302.538L511.103 301.025M499 305.258L511.103 303.746M499 307.985L511.103 306.472M499 310.707L511.103 309.194M499 313.43L511.103 311.917M499 316.152L511.103 314.639M499 318.875L511.103 317.362M499 321.601L511.103 320.088M499 324.321L511.103 322.808M499 327.046L511.103 325.533M499 329.768L511.103 328.255M499 332.491L511.103 330.978M499 335.213L511.103 333.7M499 337.937L511.103 336.424M499 340.662L511.103 339.149M499 343.386L511.103 341.873M499 346.105L511.103 344.592M499 348.829L511.103 347.316M499 351.553L511.103 350.041M499 354.276L511.103 352.763M499 357L511.103 355.487M499 359.721L511.103 358.208M499 362.445L511.103 360.932M499 365.169L511.103 363.657M499 367.892L511.103 366.379M499 370.616L511.103 369.103M499 373.339L511.103 371.826M499 376.059L511.103 374.546M499 378.783L511.103 377.271M499 381.51L511.103 379.997M499 384.23L511.103 382.717" stroke="black" stroke-opacity="0.4" stroke-width="0.6"/>
<defs>
<linearGradient id="paint0_linear_7_13565" x1="379.727" y1="92" x2="379.727" y2="130" gradientUnits="userSpaceOnUse">
<stop stop-color="#F1F0F8"/>
<stop offset="0.338542" stop-color="white"/>
<stop offset="0.5625" stop-color="white"/>
<stop offset="1" stop-color="#E7E5F0"/>
</linearGradient>
<linearGradient id="paint1_linear_7_13565" x1="413.985" y1="97.1816" x2="413.985" y2="124.818" gradientUnits="userSpaceOnUse">
<stop stop-color="#F1F0F8"/>
<stop offset="0.338542" stop-color="white"/>
<stop offset="0.5625" stop-color="white"/>
<stop offset="1" stop-color="#E7E5F0"/>
</linearGradient>
<linearGradient id="paint2_linear_7_13565" x1="345.47" y1="97.1816" x2="345.47" y2="124.818" gradientUnits="userSpaceOnUse">
<stop stop-color="#F1F0F8"/>
<stop offset="0.338542" stop-color="white"/>
<stop offset="0.5625" stop-color="white"/>
<stop offset="1" stop-color="#E7E5F0"/>
</linearGradient>
<linearGradient id="paint3_linear_7_13565" x1="417.727" y1="105.818" x2="417.727" y2="116.182" gradientUnits="userSpaceOnUse">
<stop stop-color="#F1F0F8"/>
<stop offset="0.338542" stop-color="white"/>
<stop offset="0.5625" stop-color="white"/>
<stop offset="1" stop-color="#E7E5F0"/>
</linearGradient>
<linearGradient id="paint4_linear_7_13565" x1="341.727" y1="105.818" x2="341.727" y2="116.182" gradientUnits="userSpaceOnUse">
<stop stop-color="#F1F0F8"/>
<stop offset="0.338542" stop-color="white"/>
<stop offset="0.5625" stop-color="white"/>
<stop offset="1" stop-color="#E7E5F0"/>
</linearGradient>
<linearGradient id="paint5_linear_7_13565" x1="379.727" y1="320" x2="379.727" y2="358" gradientUnits="userSpaceOnUse">
<stop stop-color="#F1F0F8"/>
<stop offset="0.338542" stop-color="white"/>
<stop offset="0.5625" stop-color="white"/>
<stop offset="1" stop-color="#E7E5F0"/>
</linearGradient>
<linearGradient id="paint6_linear_7_13565" x1="413.985" y1="325.182" x2="413.985" y2="352.818" gradientUnits="userSpaceOnUse">
<stop stop-color="#F1F0F8"/>
<stop offset="0.338542" stop-color="white"/>
<stop offset="0.5625" stop-color="white"/>
<stop offset="1" stop-color="#E7E5F0"/>
</linearGradient>
<linearGradient id="paint7_linear_7_13565" x1="345.47" y1="325.182" x2="345.47" y2="352.818" gradientUnits="userSpaceOnUse">
<stop stop-color="#F1F0F8"/>
<stop offset="0.338542" stop-color="white"/>
<stop offset="0.5625" stop-color="white"/>
<stop offset="1" stop-color="#E7E5F0"/>
</linearGradient>
<linearGradient id="paint8_linear_7_13565" x1="417.727" y1="333.818" x2="417.727" y2="344.182" gradientUnits="userSpaceOnUse">
<stop stop-color="#F1F0F8"/>
<stop offset="0.338542" stop-color="white"/>
<stop offset="0.5625" stop-color="white"/>
<stop offset="1" stop-color="#E7E5F0"/>
</linearGradient>
<linearGradient id="paint9_linear_7_13565" x1="341.727" y1="333.818" x2="341.727" y2="344.182" gradientUnits="userSpaceOnUse">
<stop stop-color="#F1F0F8"/>
<stop offset="0.338542" stop-color="white"/>
<stop offset="0.5625" stop-color="white"/>
<stop offset="1" stop-color="#E7E5F0"/>
</linearGradient>
<linearGradient id="paint10_linear_7_13565" x1="668.262" y1="181" x2="668.262" y2="242" gradientUnits="userSpaceOnUse">
<stop stop-color="#F1F0F8"/>
<stop offset="0.338542" stop-color="white"/>
<stop offset="0.5625" stop-color="white"/>
<stop offset="1" stop-color="#E7E5F0"/>
</linearGradient>
<linearGradient id="paint11_linear_7_13565" x1="669.75" y1="70" x2="669.75" y2="150.5" gradientUnits="userSpaceOnUse">
<stop stop-color="#F1F0F8"/>
<stop offset="0.338542" stop-color="white"/>
<stop offset="0.5625" stop-color="white"/>
<stop offset="1" stop-color="#E7E5F0"/>
</linearGradient>
<linearGradient id="paint12_linear_7_13565" x1="228.75" y1="136" x2="228.75" y2="216.5" gradientUnits="userSpaceOnUse">
<stop stop-color="#F1F0F8"/>
<stop offset="0.338542" stop-color="white"/>
<stop offset="0.5625" stop-color="white"/>
<stop offset="1" stop-color="#E7E5F0"/>
</linearGradient>
<linearGradient id="paint13_linear_7_13565" x1="228.75" y1="235" x2="228.75" y2="315.5" gradientUnits="userSpaceOnUse">
<stop stop-color="#F1F0F8"/>
<stop offset="0.338542" stop-color="white"/>
<stop offset="0.5625" stop-color="white"/>
<stop offset="1" stop-color="#E7E5F0"/>
</linearGradient>
<linearGradient id="paint14_linear_7_13565" x1="669.75" y1="286" x2="669.75" y2="366.5" gradientUnits="userSpaceOnUse">
<stop stop-color="#F1F0F8"/>
<stop offset="0.338542" stop-color="white"/>
<stop offset="0.5625" stop-color="white"/>
<stop offset="1" stop-color="#E7E5F0"/>
</linearGradient>
<linearGradient id="paint15_linear_7_13565" x1="58.25" y1="63" x2="58.25" y2="157.224" gradientUnits="userSpaceOnUse">
<stop stop-color="#F1F0F8"/>
<stop offset="0.338542" stop-color="white"/>
<stop offset="0.5625" stop-color="white"/>
<stop offset="1" stop-color="#E7E5F0"/>
</linearGradient>
<linearGradient id="paint16_linear_7_13565" x1="58.25" y1="291" x2="58.25" y2="385.224" gradientUnits="userSpaceOnUse">
<stop stop-color="#F1F0F8"/>
<stop offset="0.338542" stop-color="white"/>
<stop offset="0.5625" stop-color="white"/>
<stop offset="1" stop-color="#E7E5F0"/>
</linearGradient>
<linearGradient id="paint17_linear_7_13565" x1="505.05" y1="156" x2="505.05" y2="185.463" gradientUnits="userSpaceOnUse">
<stop stop-color="#F1F0F8"/>
<stop offset="0.338542" stop-color="white"/>
<stop offset="0.5625" stop-color="white"/>
<stop offset="1" stop-color="#E7E5F0"/>
</linearGradient>
<linearGradient id="paint18_linear_7_13565" x1="505.05" y1="269" x2="505.05" y2="298.463" gradientUnits="userSpaceOnUse">
<stop stop-color="#F1F0F8"/>
<stop offset="0.338542" stop-color="white"/>
<stop offset="0.5625" stop-color="white"/>
<stop offset="1" stop-color="#E7E5F0"/>
</linearGradient>
<linearGradient id="paint19_linear_7_13565" x1="552.05" y1="199" x2="552.05" y2="228.463" gradientUnits="userSpaceOnUse">
<stop stop-color="#F1F0F8"/>
<stop offset="0.338542" stop-color="white"/>
<stop offset="0.5625" stop-color="white"/>
<stop offset="1" stop-color="#E7E5F0"/>
</linearGradient>
<linearGradient id="paint20_linear_7_13565" x1="552.05" y1="228" x2="552.05" y2="257.463" gradientUnits="userSpaceOnUse">
<stop stop-color="#F1F0F8"/>
<stop offset="0.338542" stop-color="white"/>
<stop offset="0.5625" stop-color="white"/>
<stop offset="1" stop-color="#E7E5F0"/>
</linearGradient>
<linearGradient id="paint21_linear_7_13565" x1="505.051" y1="70" x2="505.051" y2="156.535" gradientUnits="userSpaceOnUse">
<stop stop-color="#F1F0F8"/>
<stop offset="0.338542" stop-color="white"/>
<stop offset="0.5625" stop-color="white"/>
<stop offset="1" stop-color="#E7E5F0"/>
</linearGradient>
<linearGradient id="paint22_linear_7_13565" x1="552.051" y1="145" x2="552.051" y2="199.535" gradientUnits="userSpaceOnUse">
<stop stop-color="#F1F0F8"/>
<stop offset="0.338542" stop-color="white"/>
<stop offset="0.5625" stop-color="white"/>
<stop offset="1" stop-color="#E7E5F0"/>
</linearGradient>
<linearGradient id="paint23_linear_7_13565" x1="552.051" y1="257" x2="552.051" y2="311.535" gradientUnits="userSpaceOnUse">
<stop stop-color="#F1F0F8"/>
<stop offset="0.338542" stop-color="white"/>
<stop offset="0.5625" stop-color="white"/>
<stop offset="1" stop-color="#E7E5F0"/>
</linearGradient>
<linearGradient id="paint24_linear_7_13565" x1="505.051" y1="298" x2="505.051" y2="384.535" gradientUnits="userSpaceOnUse">
<stop stop-color="#F1F0F8"/>
<stop offset="0.338542" stop-color="white"/>
<stop offset="0.5625" stop-color="white"/>
<stop offset="1" stop-color="#E7E5F0"/>
</linearGradient>
</defs>
</svg>
