<svg width="162" height="36" viewBox="0 0 162 36" fill="none" xmlns="http://www.w3.org/2000/svg">
<g opacity="0.5">
<path d="M42.5356 29.5979C42.7262 29.3004 42.8201 28.9105 42.8201 28.431C42.8201 27.8071 42.6208 27.3349 42.2208 27.0143C41.8179 26.6937 41.1911 26.532 40.3347 26.532L37.4854 26.5363C37.4854 26.5363 37.9966 26.6807 38.0891 27.1948V32.905H39.7282V30.4196L41.1911 32.905H43.1422L41.3947 30.3474C41.9233 30.2117 42.3046 29.9618 42.5356 29.5993M40.7535 29.4203C40.5817 29.504 40.2871 29.5459 39.8712 29.5459H39.7282V27.8794H39.8712C40.3882 27.8794 40.7391 27.9631 40.9225 28.1292C41.0539 28.2491 41.1189 28.4469 41.1189 28.7256C41.1189 29.0708 40.9976 29.3033 40.755 29.4203" fill="#060000"/>
<path d="M43.9784 27.2626V32.9035H47.882V31.4767H45.6724V30.3979H47.7563V29.0346H45.6724V27.9212H47.882V26.5304L43.3675 26.5348C43.3675 26.5348 43.9221 26.6922 43.9784 27.2626Z" fill="#060000"/>
<path d="M53.2642 26.9853C52.8468 26.6821 52.1796 26.5304 51.2583 26.5304H48.513C48.513 26.5304 49.1758 26.7182 49.2004 27.4056V32.902H50.8409V30.7993H51.3305C52.2273 30.7993 52.8786 30.6564 53.2815 30.3704C53.7393 30.0441 53.9675 29.4881 53.9675 28.7039C53.9675 27.9197 53.7321 27.3291 53.2628 26.9839M51.9616 29.3003C51.8316 29.3667 51.5933 29.3985 51.2482 29.3985H50.838V27.9009H51.124C51.498 27.9009 51.784 27.9486 51.9832 28.0453C52.1811 28.1392 52.2822 28.3457 52.2822 28.6692C52.2822 28.9927 52.1753 29.1949 51.9616 29.3003Z" fill="#060000"/>
<path d="M60.6583 29.2498V26.5304L58.3188 26.5348C58.3188 26.5348 58.9383 26.7037 58.9398 27.3493L58.947 29.8635C58.947 30.5827 58.8589 31.0636 58.6798 31.3077C58.5311 31.5113 58.2509 31.611 57.8422 31.611C57.3368 31.611 57.006 31.4304 56.8515 31.0665C56.762 30.8528 56.7187 30.4499 56.7187 29.8549V26.5304L54.3806 26.5333C54.3806 26.5333 54.9683 26.6994 54.9987 27.3074V29.9083C54.9987 31.0246 55.2268 31.8305 55.6789 32.3229C56.1338 32.8154 56.8544 33.0623 57.8408 33.0623C58.6841 33.0623 59.321 32.941 59.7557 32.697C60.1442 32.476 60.4012 32.1467 60.5312 31.7077C60.6207 31.4044 60.6641 30.9178 60.6641 30.2462C60.6583 30.0859 60.6554 29.9228 60.6554 29.7567V29.2483L60.6583 29.2498Z" fill="#060000"/>
<path d="M65.7097 29.4722C66.1618 29.3408 66.4766 29.1545 66.6557 28.9104C66.7986 28.7154 66.8694 28.4526 66.8694 28.1262C66.8694 27.4619 66.6138 27.0128 66.104 26.7803C65.7357 26.6128 65.0989 26.5304 64.1963 26.5304L61.5506 26.5348C61.5506 26.5348 62.0734 26.6835 62.1571 27.2135V32.9035H64.4114C65.4931 32.9035 66.247 32.7186 66.6744 32.3504C67.0008 32.0716 67.164 31.6528 67.164 31.0925C67.164 30.5697 67.008 30.1668 66.6932 29.8809C66.4434 29.6541 66.117 29.5184 65.7126 29.4707M63.7789 27.7941H64.2425C64.5746 27.7941 64.8043 27.8172 64.9285 27.8648C65.1422 27.9486 65.2505 28.1291 65.2505 28.4093C65.2505 28.6894 65.1451 28.8786 64.9371 28.9783C64.7999 29.0447 64.5862 29.0765 64.2959 29.0765L63.7789 29.0678V27.7926V27.7941ZM65.1249 31.5012C64.9588 31.5734 64.6988 31.6081 64.3407 31.6081H63.7803V30.1812H64.3869C64.8028 30.1812 65.1032 30.2477 65.2866 30.3791C65.4353 30.4845 65.509 30.6492 65.509 30.8687C65.509 31.1763 65.3805 31.3886 65.1249 31.5012Z" fill="#060000"/>
<path d="M70.113 26.5304L67.7619 26.5348C67.7619 26.5348 68.3294 26.6951 68.3756 27.2828V32.9035H72.2792V31.4059H70.113V26.5304Z" fill="#060000"/>
<path d="M73.3177 27.3522L73.3206 27.3392V32.902H75.0767V26.5304L72.6967 26.5348C72.6967 26.5348 73.3192 26.7037 73.3192 27.3522" fill="#060000"/>
<path d="M77.133 27.5192C76.6464 28.143 76.4023 28.8781 76.4023 29.7215C76.4023 30.6111 76.6781 31.3765 77.2312 32.0105C77.8363 32.7065 78.6219 33.0531 79.5837 33.0531C80.1253 33.0531 80.6885 32.9232 81.2777 32.6618V30.7627C80.9629 31.079 80.6654 31.2985 80.3867 31.4241C80.1961 31.5065 79.991 31.5483 79.7715 31.5483C79.2126 31.5483 78.7822 31.3317 78.479 30.897C78.2421 30.5576 78.1223 30.1663 78.1223 29.7215C78.1223 29.138 78.31 28.6788 78.6855 28.3394C79.0003 28.0549 79.3628 27.912 79.7729 27.912C80.0401 27.912 80.2957 27.9712 80.5383 28.0896C80.729 28.1849 80.9759 28.3784 81.2777 28.6701V26.7711C80.7261 26.5155 80.1614 26.3884 79.5837 26.3884C78.5367 26.3884 77.7208 26.7667 77.133 27.5192Z" fill="#060000"/>
<path d="M88.5476 26.3884C87.4616 26.3884 86.5966 26.7696 85.9539 27.5293C85.4124 28.1705 85.1438 28.9026 85.1438 29.7229C85.1438 30.7454 85.512 31.5729 86.2486 32.2083C86.9013 32.7715 87.6595 33.0546 88.5202 33.0546C89.4603 33.0546 90.2633 32.7412 90.9319 32.1144C91.6006 31.4891 91.9342 30.6992 91.9342 29.7489C91.9342 28.9055 91.6583 28.1604 91.1052 27.5119C90.4698 26.7639 89.6178 26.3884 88.5476 26.3884ZM89.6264 31.1916C89.3174 31.4718 88.9578 31.6119 88.5476 31.6119C87.996 31.6119 87.5671 31.4039 87.2652 30.988C87.0154 30.6429 86.8912 30.2255 86.8912 29.7316C86.8912 29.203 87.0457 28.7568 87.3591 28.3914C87.6696 28.0261 88.0667 27.8441 88.5476 27.8441C89.1123 27.8441 89.5456 28.0665 89.8488 28.5127C90.0871 28.8622 90.2055 29.2752 90.2055 29.7504C90.2055 30.3627 90.0135 30.8436 89.6264 31.1945" fill="#060000"/>
<path d="M93.2008 27.2555V32.9036H94.8933V30.3994H96.9787V29.0361H94.8933V27.9227H97.1043V26.532L92.5885 26.5348C92.5885 26.5348 93.1401 26.6923 93.2008 27.2569" fill="#060000"/>
<path d="M106.959 26.5304H104.919L102.921 29.4187V26.5304L100.569 26.5333C100.569 26.5333 101.19 26.7196 101.19 27.3666V27.3579L101.191 32.9035H102.92V30.0527L104.986 32.9035H107.145L104.588 29.6512L106.958 26.5319L106.959 26.5304Z" fill="#060000"/>
<path d="M110.624 26.3884C109.537 26.3884 108.672 26.7696 108.031 27.5293C107.491 28.1705 107.22 28.9026 107.22 29.7229C107.22 30.7454 107.589 31.5729 108.325 32.2083C108.979 32.7715 109.736 33.0546 110.598 33.0546C111.537 33.0546 112.341 32.7412 113.009 32.1144C113.677 31.4891 114.012 30.6992 114.012 29.7489C114.012 28.9055 113.735 28.1604 113.183 27.5119C112.548 26.7639 111.694 26.3884 110.626 26.3884M111.705 31.1916C111.396 31.4718 111.036 31.6119 110.626 31.6119C110.073 31.6119 109.645 31.4039 109.342 30.988C109.092 30.6429 108.968 30.2255 108.968 29.7316C108.968 29.203 109.125 28.7568 109.436 28.3914C109.748 28.0261 110.145 27.8441 110.626 27.8441C111.189 27.8441 111.624 28.0665 111.927 28.5127C112.165 28.8622 112.282 29.2752 112.282 29.7504C112.282 30.3627 112.09 30.8436 111.705 31.1945" fill="#060000"/>
<path d="M119.458 29.5979C119.649 29.3004 119.743 28.9105 119.743 28.431C119.743 27.8071 119.542 27.3349 119.141 27.0143C118.739 26.6937 118.112 26.532 117.256 26.532L114.395 26.5363C114.395 26.5363 114.976 26.7009 115.01 27.3003V32.9036H116.651V30.4182L118.112 32.9036H120.065L118.317 30.346C118.846 30.2102 119.226 29.9604 119.458 29.5979ZM117.676 29.4188C117.501 29.5026 117.21 29.5445 116.794 29.5445H116.652V27.8779H116.794C117.311 27.8779 117.662 27.9617 117.845 28.1278C117.977 28.2476 118.042 28.4455 118.042 28.7242C118.042 29.0693 117.92 29.3018 117.678 29.4188" fill="#060000"/>
<path d="M120.899 27.2468V32.9036H124.804V31.4767H122.595V30.3994H124.68V29.0361H122.595V27.9227H124.804V26.532L120.291 26.5392C120.291 26.5392 120.833 26.6937 120.899 27.2483" fill="#060000"/>
<path d="M126.913 26.5377C127.05 26.5406 127.479 26.6562 127.301 27.3003L125.372 32.9036H127.101L127.431 31.754H129.901L130.211 32.9036H131.95L129.741 26.532L126.914 26.5392L126.913 26.5377ZM127.814 30.5149L128.457 28.4122C128.51 28.2519 128.578 27.9674 128.66 27.5573C128.75 27.9371 128.826 28.2231 128.891 28.4122L129.534 30.5149H127.813H127.814Z" fill="#060000"/>
<path d="M140.673 30.4787L137.76 26.5304H135.47C135.47 26.5304 136.041 26.6922 136.085 27.2828V32.9035H137.722V28.8382L140.647 32.9035H142.313V26.5319H140.671V30.4802L140.673 30.4787Z" fill="#060000"/>
<path d="M147.374 26.5304H144.543C144.543 26.5304 145.144 26.5651 144.997 27.1211L143.007 32.9035H144.735L145.066 31.7539H147.535L147.847 32.9035H149.585L147.388 26.5709L147.375 26.5319L147.374 26.5304ZM145.449 30.5134L146.091 28.4107C146.143 28.2504 146.213 27.9659 146.296 27.5558C146.386 27.9356 146.462 28.2215 146.527 28.4107L147.17 30.5134H145.449Z" fill="#060000"/>
<path d="M151.839 30.7127C151.803 30.5408 150.351 26.5304 150.351 26.5304L148.058 26.5377C148.155 26.5405 148.512 26.5983 148.785 27.1716L151.18 32.9035H152.509L155.173 26.5319H153.321L151.84 30.7141L151.839 30.7127Z" fill="#060000"/>
<path d="M160.013 26.5304C160.013 26.5304 158.954 28.5465 158.936 28.6071C158.923 28.5652 157.874 26.5304 157.874 26.5304L155.513 26.5377C155.513 26.5377 156.014 26.6373 156.222 27.0821L158.095 29.9978V32.902H159.772V29.9978L162 26.5304H160.012H160.013Z" fill="#060000"/>
<path d="M81.7818 13.7467C82.0951 14.0601 82.5125 14.2334 82.9544 14.2334H93.0736V3.62035L80.1903 3.61746C80.1903 3.61746 81.272 3.91496 81.3023 5.03706V12.5986C81.3023 13.0304 81.4727 13.4377 81.7818 13.7467ZM84.5776 6.42345H89.6192V11.5661H84.5776V6.42345Z" fill="#060000"/>
<path d="M84.8823 15.5783H81.3066V21.6711C81.3066 22.1116 81.4799 22.5261 81.7947 22.8394C82.1081 23.1528 82.5197 23.3247 82.9558 23.3247H99.8105V20.6559H84.8823V15.5783Z" fill="#060000"/>
<path d="M74.2505 4.97661V4.97084L74.2447 14.2524H77.7511V10.0918H79.9V7.27859H77.7511V3.50647L73.1356 3.51224C73.1356 3.51224 74.2491 3.81696 74.2491 4.97517" fill="#060000"/>
<path d="M78.258 20.5158H63.3327V16.5141H59.7454V21.4588C59.7454 21.9383 59.9317 22.386 60.2682 22.7239C60.6105 23.0647 61.0654 23.2525 61.552 23.2525H78.258V20.5158Z" fill="#060000"/>
<path d="M128.549 2.44482H124.797V3.50338H120.185C120.185 3.50338 121.24 3.79655 121.292 4.88544V6.27327H123.652C122.338 7.24085 121.539 8.78753 121.539 10.4295C121.539 11.8101 122.077 13.1084 123.053 14.0832C124.029 15.0595 125.326 15.5967 126.707 15.5967C129.554 15.5967 131.874 13.2788 131.874 10.4295C131.874 8.78753 131.075 7.24085 129.762 6.27327H132.167V3.50194H128.548V2.44338L128.549 2.44482ZM126.694 12.4788C125.522 12.4788 124.572 11.5285 124.572 10.3588C124.572 9.18901 125.522 8.23876 126.694 8.23876C127.865 8.23876 128.814 9.18901 128.814 10.3588C128.814 11.5285 127.865 12.4788 126.694 12.4788Z" fill="#060000"/>
<path d="M59.4856 4.73722V6.27524H61.8439C60.5312 7.24282 59.7325 8.7895 59.7325 10.4315C59.7325 11.8121 60.2698 13.1104 61.246 14.0852C62.2223 15.0615 63.5206 15.5987 64.8997 15.5987C67.7476 15.5987 70.0654 13.2808 70.0654 10.4315C70.0654 8.7895 69.2683 7.24282 67.9541 6.27524H70.36V3.50391H66.741V2.506H62.9891V3.50391L58.388 3.50969C58.388 3.50969 59.3455 3.77252 59.4842 4.73722M63.275 11.9652C62.8447 11.5348 62.6093 10.9658 62.6093 10.3579C62.6093 9.74987 62.8447 9.17943 63.275 8.75051C63.704 8.32304 64.2744 8.0862 64.8824 8.0862C65.4904 8.0862 66.0594 8.32304 66.4883 8.75051C66.9172 9.18087 67.1555 9.75131 67.1555 10.3579C67.1555 11.6114 66.1359 12.6309 64.8824 12.6309C64.2744 12.6309 63.704 12.3955 63.275 11.9652Z" fill="#060000"/>
<path d="M136.873 23.2971V11.2327H138.352V23.2971H141.5V3.4805L137.262 3.48628C137.262 3.48628 138.182 3.74045 138.348 4.65749L138.352 8.42094H136.873V3.48917H132.422C132.422 3.48917 133.537 3.78955 133.537 4.94921L133.54 4.93043V23.2986H136.875L136.873 23.2971Z" fill="#060000"/>
<path d="M38.2492 4.82623V13.702C38.2492 14.1497 38.4182 14.567 38.7243 14.8732C39.0204 15.1692 39.419 15.3324 39.8436 15.3324H47.551V12.6044H41.8076V6.27905L47.551 6.28483V3.60015L37.156 3.60737C37.156 3.60737 38.1005 3.87454 38.2492 4.82479" fill="#060000"/>
<path d="M49.4344 4.66487V23.2973H52.7675V11.2329H54.2463V23.2973H57.3946V3.48356H53.1603C53.1603 3.48356 54.0586 3.74928 54.242 4.64321L54.2463 8.41966H52.7675V3.48934L48.3513 3.48644C48.3513 3.48644 49.2626 3.75217 49.4359 4.66487" fill="#060000"/>
<path d="M96.297 4.97084L96.3028 4.93185L96.297 14.2509H99.8034V3.50647H95.1836C95.1836 3.50647 96.297 3.81119 96.297 4.96939" fill="#060000"/>
<path d="M101.401 14.2334H108.683V16.2263H101.399V18.924H116.223V23.3012H119.883V18.0229C119.883 17.5391 119.695 17.0842 119.357 16.7462C119.021 16.4097 118.573 16.2249 118.094 16.2249H112.268V14.232H119.972L119.962 11.5458H101.401V14.2334Z" fill="#060000"/>
<path d="M101.428 4.97081V6.22H116.252V10.112H119.935V5.34051C119.935 4.84372 119.747 4.38304 119.405 4.04222C119.077 3.71295 118.638 3.53244 118.169 3.53244H101.428V3.53532H100.316C100.316 3.53532 101.408 3.83571 101.428 4.97225" fill="#060000"/>
<path d="M142.995 4.94521V6.32582H157.819V10.4388H161.479V5.44633C161.479 4.95821 161.289 4.50186 160.949 4.16104C160.613 3.82599 160.164 3.64114 159.689 3.64114L141.89 3.63681C141.89 3.63681 142.993 4.00651 142.993 4.94521" fill="#060000"/>
<path d="M161.506 11.8926H142.995V14.57H150.675V18.2064H154.258V14.57H161.506V11.8926Z" fill="#060000"/>
<path d="M142.96 16.2188L142.965 21.4942C142.965 21.9737 143.149 22.4228 143.487 22.7636C143.83 23.1045 144.285 23.2908 144.77 23.2908H161.477V20.596H146.548V16.2202H142.96V16.2188Z" fill="#060000"/>
<path d="M7.66366 19.5368C7.66366 19.4689 7.62755 19.4054 7.56834 19.3707L7.10622 19.1036C6.91992 19.6321 6.78273 20.1838 6.70185 20.7528H7.6651V19.5368H7.66366Z" fill="#0D2B62"/>
<path d="M10.6486 19.37L9.47599 18.6927C9.41678 18.6581 9.34313 18.6581 9.28392 18.6927L8.11127 19.37C8.05206 19.4047 8.01595 19.4668 8.01595 19.5361V20.7521H10.744V19.5361C10.744 19.4682 10.7078 19.4047 10.6486 19.37Z" fill="#0D2B62"/>
<path d="M13.7277 19.37L12.555 18.6927C12.4958 18.6581 12.4222 18.6581 12.363 18.6927L11.1903 19.37C11.1311 19.4047 11.095 19.4668 11.095 19.5361V20.7521H13.8114V19.474C13.797 19.4307 13.7681 19.3931 13.7277 19.37Z" fill="#0D2B62"/>
<path d="M7.9352 19.1449L9.10785 18.4676C9.16706 18.4329 9.20316 18.3694 9.20316 18.3015V16.9484C9.20316 16.8805 9.16706 16.8169 9.10785 16.7823L8.58507 16.4805C8.00885 17.1852 7.54095 17.978 7.2059 18.8344L7.74313 19.1449C7.80234 19.1796 7.87599 19.1796 7.9352 19.1449Z" fill="#0D2B62"/>
<path d="M9.65219 18.4678L10.8248 19.1451C10.884 19.1798 10.9577 19.1798 11.0169 19.1451L12.1896 18.4678C12.2488 18.4331 12.2849 18.3696 12.2849 18.3017V16.9471C12.2849 16.8792 12.2488 16.8157 12.1896 16.781L11.0169 16.1037C10.9577 16.0691 10.884 16.0691 10.8248 16.1037L9.65219 16.781C9.59298 16.8157 9.55687 16.8792 9.55687 16.9471V18.3017C9.55687 18.3696 9.59298 18.4331 9.65219 18.4678Z" fill="#0D2B62"/>
<path d="M12.6359 16.947V18.3002C12.6359 18.3695 12.672 18.4316 12.7312 18.4663L13.8115 19.0901V16.1556L12.7312 16.7795C12.672 16.8142 12.6359 16.8777 12.6359 16.9456" fill="#0D2B62"/>
<path d="M9.47601 16.5553L10.6487 15.878C10.7079 15.8433 10.744 15.7798 10.744 15.7119V14.5681C10.0046 15.0375 9.34026 15.6079 8.77127 16.2592L9.28394 16.5553C9.34315 16.5899 9.4168 16.5899 9.47601 16.5553Z" fill="#0D2B62"/>
<path d="M11.095 15.7126C11.095 15.7805 11.1311 15.844 11.1918 15.8787L12.3644 16.556C12.4236 16.5906 12.4973 16.5906 12.5565 16.556L13.7291 15.8787C13.7696 15.8556 13.7984 15.818 13.8129 15.7747V14.2959C13.7984 14.2525 13.7696 14.215 13.7291 14.1919L12.737 13.6186C12.1622 13.8121 11.6134 14.059 11.0979 14.3551V15.7111L11.095 15.7126Z" fill="#0D2B62"/>
<path d="M13.8128 13.3278C13.5731 13.3769 13.3362 13.4362 13.1023 13.504L13.8128 13.9142V13.3278Z" fill="#0D2B62"/>
<path d="M23.6057 19.5368V20.7528H24.5689C24.488 20.1838 24.3508 19.6336 24.1646 19.1036L23.701 19.3707C23.6418 19.4054 23.6057 19.4675 23.6057 19.5368Z" fill="#0D2B62"/>
<path d="M23.158 19.37L21.9854 18.6927C21.9262 18.6581 21.8525 18.6581 21.7933 18.6927L20.6207 19.37C20.5614 19.4047 20.5253 19.4668 20.5253 19.5361V20.7521H23.2533V19.5361C23.2533 19.4682 23.2172 19.4047 23.158 19.37Z" fill="#0D2B62"/>
<path d="M20.0776 19.37L18.905 18.6927C18.8458 18.6581 18.7721 18.6581 18.7129 18.6927L17.5402 19.37C17.4998 19.3931 17.4709 19.4307 17.4565 19.474V20.7521H20.1729V19.5361C20.1729 19.4682 20.1368 19.4047 20.0776 19.37Z" fill="#0D2B62"/>
<path d="M22.0647 16.9473V18.3005C22.0647 18.3698 22.1008 18.4319 22.1601 18.4666L23.3327 19.1439C23.3919 19.1786 23.4656 19.1786 23.5248 19.1439L24.0634 18.8334C23.7284 17.977 23.2605 17.1842 22.6843 16.4794L22.1615 16.7813C22.1023 16.8159 22.0662 16.8795 22.0662 16.9473" fill="#0D2B62"/>
<path d="M21.6184 16.781L20.4457 16.1037C20.3865 16.0691 20.3129 16.0691 20.2537 16.1037L19.081 16.781C19.0218 16.8157 18.9857 16.8792 18.9857 16.9471V18.3003C18.9857 18.3682 19.0218 18.4317 19.081 18.4664L20.2537 19.1437C20.3129 19.1783 20.3865 19.1783 20.4457 19.1437L21.6184 18.4664C21.6776 18.4317 21.7137 18.3682 21.7137 18.3003V16.9471C21.7137 16.8792 21.6776 16.8157 21.6184 16.781Z" fill="#0D2B62"/>
<path d="M18.6335 18.3023V16.9491C18.6335 16.8813 18.5974 16.8177 18.5367 16.7831L17.4565 16.1592V19.0937L18.5367 18.4698C18.5959 18.4352 18.6335 18.3731 18.6335 18.3038" fill="#0D2B62"/>
<path d="M20.6207 15.878L21.7933 16.5553C21.8525 16.5899 21.9262 16.5899 21.9854 16.5553L22.4981 16.2592C21.9291 15.6079 21.2648 15.0375 20.5253 14.5681V15.7119C20.5253 15.7798 20.5614 15.8433 20.6207 15.878Z" fill="#0D2B62"/>
<path d="M17.5418 15.8782L18.7144 16.5555C18.7736 16.5902 18.8473 16.5902 18.9065 16.5555L20.0791 15.8782C20.1384 15.8436 20.1745 15.78 20.1745 15.7122V14.3561C19.6589 14.06 19.1101 13.8131 18.5354 13.6196L17.5418 14.1929C17.5013 14.216 17.4725 14.2536 17.458 14.2969V15.7757C17.4725 15.819 17.5013 15.8566 17.5418 15.8797" fill="#0D2B62"/>
<path d="M17.4565 13.3278V13.9142L18.167 13.504C17.9345 13.4362 17.6977 13.3769 17.4565 13.3278Z" fill="#0D2B62"/>
<path d="M17.094 19.4803H14.1768V20.7526H17.094V19.4803Z" fill="#0D2B62"/>
<path d="M17.094 17.8297H14.1768V19.102H17.094V17.8297Z" fill="#0D2B62"/>
<path d="M17.094 16.179H14.1768V17.4513H17.094V16.179Z" fill="#0D2B62"/>
<path d="M17.094 14.5294H14.1768V15.8017H17.094V14.5294Z" fill="#0D2B62"/>
<path d="M14.1768 12.8788C15.1488 13.0867 16.1221 13.0867 17.094 12.8788V14.1511H14.1768V12.8788Z" fill="#0D2B62"/>
<path d="M6.14001 21.0816V22.5214H15.0215L15.6353 21.9091L16.2476 22.5214H25.1306V21.0816H6.14001Z" fill="#0D2B62"/>
<path d="M15.6329 22.3817L14.479 23.5357L15.6329 24.6896L16.7869 23.5357L15.6329 22.3817Z" fill="#0D2B62"/>
<path d="M2.84596 12.9579C2.39105 12.9579 1.95492 12.7962 1.60688 12.4958C1.22129 12.1637 0.987339 11.7015 0.949791 11.1946C0.912243 10.6877 1.07399 10.1953 1.40614 9.80969C1.7383 9.4241 2.20042 9.19015 2.70732 9.1526C3.21422 9.11505 3.70667 9.2768 4.09226 9.60895C4.88799 10.2935 4.97897 11.4993 4.293 12.2951C3.96084 12.6807 3.49872 12.9146 2.99182 12.9522C2.94272 12.9565 2.89506 12.9579 2.84596 12.9579ZM2.85029 10.3426C2.83296 10.3426 2.81419 10.3426 2.79541 10.3455C2.60623 10.3599 2.43438 10.4466 2.31018 10.591C2.18598 10.7354 2.12677 10.9188 2.13977 11.108C2.15421 11.2972 2.24086 11.469 2.38528 11.5932C2.52969 11.7174 2.71165 11.7766 2.90228 11.7636C3.09147 11.7492 3.26332 11.6625 3.38752 11.5181C3.51171 11.3737 3.57092 11.1903 3.55793 11.0011C3.54348 10.8119 3.45684 10.6401 3.31242 10.5159C3.18245 10.4032 3.0207 10.344 2.85029 10.344" fill="#0D2B62"/>
<path d="M5.07704 16.1857L4.10513 17.3151L3.52458 17.3584L1.90424 15.9648L1.86092 15.3828L2.83283 14.2535L5.07704 16.1857Z" fill="#0D2B62"/>
<path d="M4.30835 12.5401L3.06759 13.9816L5.31247 15.9138L6.55323 14.4724L4.30835 12.5401Z" fill="#0D2B62"/>
<path d="M5.77875 10.8342L4.53774 12.2754L6.78229 14.2081L8.0233 12.7668L5.77875 10.8342Z" fill="#0D2B62"/>
<path d="M9.2291 11.3637L8.25719 12.493L6.01298 10.5607L6.9849 9.43142L7.56544 9.38809L9.18578 10.7817L9.2291 11.3637Z" fill="#0D2B62"/>
<path d="M7.74664 13.5477L6.04048 15.5299L7.76436 17.0137L9.47052 15.0315L7.74664 13.5477Z" fill="#0D2B62"/>
<path d="M28.3698 12.9522C27.8629 12.9146 27.4008 12.6807 27.0686 12.2951C26.3841 11.4993 26.4737 10.2935 27.2694 9.60895C27.655 9.2768 28.1474 9.11505 28.6543 9.1526C29.1612 9.19015 29.6233 9.4241 29.9555 9.80969C30.2877 10.1953 30.4494 10.6877 30.4119 11.1946C30.3743 11.7015 30.1404 12.1637 29.7548 12.4958C29.4053 12.7962 28.9706 12.9579 28.5157 12.9579C28.468 12.9579 28.4189 12.9565 28.3713 12.9522M28.0507 10.5144C27.9063 10.6386 27.8196 10.8105 27.8052 10.9997C27.7907 11.1889 27.8514 11.3723 27.9756 11.5167C28.0998 11.6596 28.2716 11.7477 28.4608 11.7622C28.65 11.7766 28.8334 11.716 28.9764 11.5918C29.1208 11.4676 29.2074 11.2957 29.2219 11.1065C29.2363 10.9174 29.1757 10.7339 29.0515 10.5895C28.9273 10.4451 28.7554 10.3585 28.5662 10.344C28.5475 10.344 28.5301 10.3426 28.5128 10.3426C28.3424 10.3426 28.1806 10.4032 28.0507 10.5144Z" fill="#0D2B62"/>
<path d="M26.2845 16.1857L27.2564 17.3151L27.837 17.3584L29.4573 15.9648L29.5006 15.3828L28.5287 14.2535L26.2845 16.1857Z" fill="#0D2B62"/>
<path d="M27.0574 12.5382L24.8128 14.4709L26.0539 15.9122L28.2984 13.9795L27.0574 12.5382Z" fill="#0D2B62"/>
<path d="M25.5834 10.8265L23.3389 12.7591L24.5799 14.2004L26.8244 12.2677L25.5834 10.8265Z" fill="#0D2B62"/>
<path d="M22.1327 11.3637L23.1046 12.493L25.3488 10.5607L24.3769 9.43142L23.7964 9.38809L22.176 10.7817L22.1327 11.3637Z" fill="#0D2B62"/>
<path d="M23.6127 13.5486L21.8888 15.0325L23.595 17.0146L25.3189 15.5308L23.6127 13.5486Z" fill="#0D2B62"/>
<path d="M14.3082 23.8284L15.4736 24.9852V28.8526C15.4736 28.9826 15.2859 28.9999 15.2628 28.8728L14.3082 23.8299V23.8284Z" fill="#0D2B62"/>
<path d="M17.026 23.8284L15.8606 24.9852V28.8526C15.8606 28.9826 16.0483 28.9999 16.0714 28.8728L17.026 23.8299V23.8284Z" fill="#0D2B62"/>
<path d="M10.7742 27.3263L13.9961 24.1044L15.2973 30.9208C14.9493 30.9208 14.6171 30.7763 14.3788 30.5207C13.3419 29.4102 12.2834 28.4354 10.7742 27.3248" fill="#0D2B62"/>
<path d="M4.42445 26.8842C2.64525 26.3484 2.46473 24.1259 2.42574 23.684L3.25035 24.0305C3.46697 24.0955 3.66915 23.9006 3.61717 23.6811C3.46409 23.0427 3.31389 21.678 3.73414 20.7465C3.81646 20.5631 3.63305 20.3754 3.45253 20.4635C2.64236 20.8621 1.01047 21.6101 0.048669 23.0341C-0.0885253 23.2377 0.0833285 23.5092 0.32739 23.4688L1.18522 23.463C1.18522 23.463 0.513685 25.0227 1.54192 27.0026C2.04449 27.9687 2.33476 29.0345 2.38386 30.122C2.39686 30.4224 2.41419 30.7588 2.40119 31.1011C2.38964 31.4289 2.6337 31.7048 2.96008 31.7351C3.3009 31.7654 3.63305 31.8232 3.9291 31.8737C5.00211 32.0571 6.02456 32.4788 6.91994 33.0969C8.75545 34.3634 10.3873 33.8912 10.3873 33.8912L10.2747 34.7418C10.2039 34.9772 10.4523 35.1837 10.6718 35.0725C12.2055 34.2941 13.15 32.7691 13.6453 32.0138C13.7551 31.8463 13.5919 31.6412 13.3998 31.7004C12.4222 32.0023 11.0878 31.6831 10.4725 31.452C10.2617 31.3726 10.0436 31.5488 10.0812 31.7712L10.3224 32.6319C9.88767 32.5395 7.70411 32.0875 7.39506 30.2548C7.17411 28.9464 8.4594 27.5283 9.29412 26.7614C8.81611 26.4423 8.25433 26.126 7.64057 25.8198C6.74953 26.4914 5.48445 27.2048 4.423 26.8856" fill="#0D2B62"/>
<path d="M23.8945 30.2534C23.584 32.086 21.4004 32.5366 20.9672 32.6305L21.2084 31.7697C21.2459 31.5473 21.0279 31.3712 20.817 31.4506C20.2032 31.6817 18.8674 32.0008 17.8897 31.699C17.6976 31.6398 17.533 31.8448 17.6442 32.0124C18.141 32.7677 19.0855 34.2927 20.6177 35.0711C20.8372 35.1823 21.0856 34.9772 21.0149 34.7404L20.9022 33.8898C20.9022 33.8898 22.5341 34.362 24.3696 33.0969C25.2664 32.4788 26.2874 32.0571 27.3605 31.8737C27.6565 31.8232 27.9887 31.7654 28.3295 31.7351C28.6573 31.7048 28.8999 31.4304 28.8884 31.1011C28.8768 30.7588 28.8927 30.4224 28.9057 30.122C28.9548 29.0345 29.2451 27.9687 29.7476 27.0026C30.7759 25.0241 30.1043 23.463 30.1043 23.463L30.9622 23.4688C31.2048 23.5092 31.3781 23.2377 31.2409 23.0341C30.2791 21.6087 28.6472 20.8621 27.837 20.4635C27.6565 20.3754 27.4731 20.5631 27.5569 20.7465C27.9785 21.6795 27.8269 23.0442 27.6738 23.6811C27.6218 23.9006 27.824 24.0955 28.0406 24.0305L28.8653 23.684C28.8277 24.1259 28.6472 26.3499 26.8666 26.8842C25.8065 27.2033 24.5415 26.4899 23.6504 25.8184C23.0367 26.126 22.4749 26.4408 21.9969 26.76C22.833 27.5254 24.1183 28.9435 23.8959 30.2534" fill="#0D2B62"/>
<path d="M24.4621 22.8381H16.5265L20.8157 27.133C22.2974 25.9532 24.0823 25.0896 25.9814 24.3516L24.4621 22.8381ZM24.4694 24.0498C24.0953 24.2115 23.7401 24.3762 23.4007 24.5422L22.5515 23.6916H24.1098L24.4694 24.0498ZM22.9198 24.7834C22.6324 24.9321 22.3566 25.0838 22.0923 25.2369L20.5485 23.6902H21.8295L22.9198 24.782V24.7834ZM18.5844 23.6916H19.8264L21.6417 25.5098C21.3818 25.6716 21.1334 25.8376 20.8951 26.0052L18.5844 23.6916Z" fill="#0D2B62"/>
<path d="M20.5165 27.3263L17.2946 24.1044L15.9935 30.9208C16.3415 30.9208 16.6737 30.7763 16.9119 30.5207C17.9488 29.4102 19.0074 28.4354 20.5165 27.3248" fill="#0D2B62"/>
<path d="M20.378 3.86743C20.4964 3.3952 20.3419 2.85797 19.9563 2.46227C19.5014 1.99581 18.8674 1.86151 18.2291 2.08679C18.1511 1.55102 17.7439 0 15.6325 0C13.5212 0 13.111 1.56113 13.0359 2.09257C12.3918 1.85862 11.7492 1.99004 11.2914 2.46083C10.9058 2.85653 10.7513 3.39375 10.8697 3.86599C10.3758 4.14327 10.0812 4.63716 10.087 5.20472C10.0928 5.88202 10.5231 6.47413 11.1845 6.7153L11.3116 6.76151C11.4979 7.45615 12.3326 7.89661 12.9926 7.89661C13.176 7.89661 13.345 7.8634 13.4822 7.79119C13.7407 8.08868 14.2707 8.24032 14.7747 8.24032C15.1011 8.24032 15.4144 8.17678 15.6354 8.04969C15.8535 8.171 16.1582 8.23166 16.4773 8.23166C16.9871 8.23166 17.5287 8.08002 17.7857 7.79263C17.9244 7.8634 18.0933 7.89806 18.2753 7.89806C18.9367 7.89806 19.7758 7.4547 19.9577 6.75574L20.0646 6.71674C20.7246 6.47557 21.1564 5.88347 21.1622 5.20616C21.1665 4.63861 20.8719 4.14471 20.3794 3.86743M11.547 6.30516L11.3607 6.23729C10.9029 6.06977 10.604 5.66396 10.5996 5.20327C10.5953 4.7657 10.8509 4.40466 11.2827 4.23858L11.3549 4.21114C11.456 4.17215 11.5022 4.05373 11.4546 3.95697L11.4199 3.88765C11.2611 3.56705 11.3593 3.12803 11.6597 2.82043C11.8228 2.6529 12.2778 2.29909 12.9854 2.62402C13.7335 2.96773 14.5046 3.94109 14.9523 4.75703V6.10876C14.3992 5.90946 13.8894 5.83437 13.4374 5.83437H13.4331C12.5536 5.83437 11.8936 6.11597 11.547 6.3066M15.3264 7.63666C15.2152 7.68432 15.0317 7.73198 14.7747 7.73198C14.3357 7.73198 13.9862 7.59479 13.8692 7.46048L13.7002 7.26552C13.6439 7.20053 13.5515 7.1832 13.475 7.22219L13.2453 7.34062C13.2107 7.35794 13.1312 7.38827 12.9912 7.38827C12.5868 7.38827 12.0178 7.12255 11.8402 6.72974C12.142 6.57088 12.6994 6.34704 13.4345 6.3456C14.0569 6.3456 14.6924 6.50734 15.3264 6.8265V7.63666ZM15.634 2.21966C15.257 2.21966 14.9509 2.52582 14.9509 2.90274V3.79089C14.5465 3.22046 14.0454 2.68034 13.5298 2.3453V2.27887C13.5327 2.20666 13.5905 0.512672 15.634 0.512672C17.6774 0.512672 17.7338 2.20666 17.7366 2.27887V2.33375C17.2225 2.66157 16.7214 3.1959 16.317 3.7649V2.90274C16.317 2.52582 16.0109 2.21966 15.634 2.21966ZM18.2768 7.38827C18.1352 7.38827 18.0572 7.35794 18.0211 7.34062L17.7958 7.22364C17.7208 7.18465 17.6298 7.20198 17.5735 7.26408L17.4045 7.45326C17.2875 7.58323 16.9236 7.72187 16.4773 7.72187C16.2275 7.72187 16.0499 7.67855 15.9416 7.63378V6.82505C16.577 6.5059 17.2124 6.34415 17.8363 6.34415C18.5656 6.34415 19.1245 6.56944 19.4277 6.7283C19.2487 7.12111 18.6811 7.38683 18.2768 7.38683M19.8899 6.23729L19.7137 6.30083C19.3656 6.1102 18.71 5.83292 17.8363 5.83292C17.3843 5.83292 16.873 5.90802 16.317 6.10731V4.72381C16.7676 3.91509 17.5287 2.96339 18.2666 2.62402C18.9743 2.29909 19.4292 2.6529 19.5909 2.82043C19.8899 3.12803 19.9881 3.56705 19.8307 3.88765L19.796 3.95697C19.7483 4.05373 19.7946 4.17215 19.8956 4.21114L19.9679 4.23858C20.3997 4.40466 20.6538 4.76425 20.6509 5.20327C20.6466 5.66396 20.3491 6.07121 19.8899 6.23729Z" fill="#0D2B62"/>
<path d="M5.3096 24.3516C7.2101 25.0896 8.99363 25.9532 10.4753 27.133L14.763 22.8381H6.82885L5.3096 24.3516ZM7.18122 23.6916H8.73946L7.8903 24.5422C7.55092 24.3762 7.19566 24.2115 6.82163 24.0498L7.18122 23.6916ZM10.7425 23.6916L9.1987 25.2383C8.93442 25.0838 8.65858 24.9336 8.36975 24.7834L9.46009 23.6916H10.7425ZM10.3959 26.0052C10.1576 25.8362 9.90922 25.6716 9.64927 25.5098L11.4646 23.6916H12.7065L10.3959 26.0052Z" fill="#0D2B62"/>
<path d="M18.2117 8.79367V8.40086H17.6615C17.2932 8.40086 16.9394 8.54672 16.678 8.80812H14.6259C14.5681 8.80812 14.5132 8.83555 14.4771 8.88032L13.5298 10.0024L10.8147 10.2089L10.3512 9.74681H9.92804V11.6444C10.0089 11.4711 10.1865 11.2603 10.4436 11.2603H12.8337C12.981 11.2603 13.1225 11.3195 13.2265 11.4235L13.3868 11.5838L14.0323 10.9382C14.0323 11.2487 13.9067 11.5462 13.6872 11.7657L13.3868 12.0661L13.007 11.6863C12.9535 11.6329 12.8799 11.6025 12.8033 11.6025H10.5923V12.1224L10.887 12.417L14.0626 12.4228L14.106 12.4344C14.584 12.5615 15.5241 12.8084 16.8253 12.5456V12.5485L20.609 12.2813L20.6754 12.2163C20.9686 11.9318 21.1404 11.5433 21.1534 11.1419C21.3931 10.8747 21.5376 10.5324 21.5563 10.1772C21.8293 9.88545 21.9867 9.49986 21.9867 9.10416V8.79656H18.2074L18.2117 8.79367ZM16.6982 9.63706H16.6881C16.4903 9.63706 16.3054 9.72948 16.1855 9.8869L16.0859 10.0183C16.005 10.1266 15.8779 10.1887 15.7422 10.1887H15.3826C15.2541 10.1887 15.1328 10.1324 15.0519 10.0328L14.8815 9.82768C14.7313 9.82335 14.4497 9.85946 14.2547 10.0284L14.6778 9.57063C14.7457 9.48109 14.8569 9.43776 14.9696 9.43776H17.1228C17.0174 9.56485 16.8628 9.63706 16.6982 9.63706ZM20.3837 11.7831L17.7265 11.9708L18.3705 11.2921H20.6277C20.5916 11.4726 20.5093 11.6415 20.3837 11.7831ZM20.7953 10.7794H18.6493V10.3014H21.0307C20.9946 10.4761 20.9151 10.6407 20.7953 10.7794ZM21.2256 9.78292H18.3272L17.9517 9.40744L18.0543 9.3049H21.4581C21.4235 9.47964 21.344 9.64283 21.2256 9.78292Z" fill="#0D2B62"/>
</g>
</svg>
