<svg width="1033" height="192" viewBox="0 0 1033 192" fill="none" xmlns="http://www.w3.org/2000/svg">
<path d="M107 56.0909C106.273 48.7576 103.151 43.0606 97.6363 39C92.1211 34.9394 84.6363 32.9091 75.1818 32.9091C68.7575 32.9091 63.3333 33.8182 58.909 35.6364C54.4848 37.394 51.0908 39.8485 48.7272 43C46.4242 46.1515 45.2727 49.7273 45.2727 53.7273C45.1514 57.0606 45.8484 59.9697 47.3636 62.4546C48.9393 64.9394 51.0908 67.0909 53.8181 68.9091C56.5454 70.6667 59.6969 72.2121 63.2727 73.5455C66.8484 74.8182 70.6666 75.9091 74.7272 76.8182L91.4545 80.8182C99.5757 82.6364 107.03 85.0606 113.818 88.0909C120.606 91.1212 126.485 94.8485 131.454 99.2727C136.424 103.697 140.273 108.909 143 114.909C145.788 120.909 147.212 127.788 147.273 135.545C147.212 146.939 144.303 156.818 138.545 165.182C132.848 173.485 124.606 179.939 113.818 184.545C103.091 189.091 90.1515 191.364 74.9999 191.364C59.9696 191.364 46.8787 189.061 35.7272 184.455C24.6363 179.849 15.9696 173.03 9.72721 164C3.54539 154.909 0.302964 143.667 -6.67572e-05 130.273H38.0908C38.5151 136.515 40.303 141.727 43.4545 145.909C46.6666 150.03 50.9393 153.152 56.2727 155.273C61.6666 157.333 67.7575 158.364 74.5454 158.364C81.2121 158.364 86.9999 157.394 91.909 155.455C96.8787 153.515 100.727 150.818 103.454 147.364C106.182 143.909 107.545 139.939 107.545 135.455C107.545 131.273 106.303 127.758 103.818 124.909C101.394 122.061 97.8181 119.636 93.0908 117.636C88.4242 115.636 82.6969 113.818 75.909 112.182L55.6363 107.091C39.9393 103.273 27.5454 97.303 18.4545 89.1818C9.36357 81.0606 4.84842 70.1212 4.90903 56.3636C4.84842 45.0909 7.84842 35.2424 13.909 26.8182C20.0302 18.394 28.4242 11.8182 39.0908 7.09093C49.7575 2.36365 61.8787 1.52588e-05 75.4545 1.52588e-05C89.2727 1.52588e-05 101.333 2.36365 111.636 7.09093C122 11.8182 130.061 18.394 135.818 26.8182C141.576 35.2424 144.545 45 144.727 56.0909H107ZM201.591 188.727H159.409L223.682 2.54547H274.409L338.591 188.727H296.409L249.773 45.0909H248.318L201.591 188.727ZM198.954 115.545H298.591V146.273H198.954V115.545ZM361 2.54547H409.545L460.818 127.636H463L514.273 2.54547H562.818V188.727H524.636V67.5455H523.091L474.909 187.818H448.909L400.727 67.0909H399.182V188.727H361V2.54547ZM595.25 188.727V2.54547H668.704C682.826 2.54547 694.856 5.24244 704.795 10.6364C714.735 15.9697 722.311 23.394 727.523 32.9091C732.795 42.3637 735.432 53.2727 735.432 65.6364C735.432 78 732.765 88.9091 727.432 98.3637C722.098 107.818 714.371 115.182 704.25 120.455C694.189 125.727 682.008 128.364 667.704 128.364H620.886V96.8182H661.341C668.917 96.8182 675.159 95.5152 680.068 92.9091C685.038 90.2424 688.735 86.5758 691.159 81.9091C693.644 77.1818 694.886 71.7576 694.886 65.6364C694.886 59.4546 693.644 54.0606 691.159 49.4546C688.735 44.7879 685.038 41.1818 680.068 38.6364C675.098 36.0303 668.795 34.7273 661.159 34.7273H634.614V188.727H595.25ZM761 188.727V2.54547H800.364V156.273H880.182V188.727H761ZM906.25 188.727V2.54547H1031.7V35H945.614V79.3637H1025.25V111.818H945.614V156.273H1032.07V188.727H906.25Z" fill="black"/>
</svg>
